<svg width="48" height="48" viewBox="0 0 48 48" fill="none" xmlns="http://www.w3.org/2000/svg">
<path d="M23.999 5.84375C24.6046 5.84382 25.0957 6.33472 25.0957 6.94043V9.12402L25.9199 9.27148C28.1436 9.66856 30.1338 10.7445 31.6689 12.2793C33.6329 14.2435 34.8466 16.9536 34.8467 19.9492V27.5537C34.8467 30.2668 36.0842 32.8319 38.208 34.5205V34.5215C38.2906 34.5872 38.3565 34.6694 38.4014 34.7617V34.7627C38.4462 34.8559 38.4707 34.9583 38.4707 35.0635C38.4707 35.4458 38.1606 35.7557 37.7783 35.7559H10.2197C9.83739 35.7559 9.52734 35.4459 9.52734 35.0635C9.52735 34.9583 9.55166 34.8552 9.59668 34.7617L9.5957 34.7607C9.62925 34.6919 9.67548 34.6292 9.73047 34.5742L9.78906 34.5215C10.7184 33.7828 11.4785 32.876 12.0391 31.8623L12.2666 31.4219C12.8416 30.2303 13.1514 28.9107 13.1514 27.5537V20.0283C13.1514 14.708 17.0244 10.1988 22.082 9.27539L22.9023 9.125V6.94043C22.9024 6.33465 23.3934 5.84375 23.999 5.84375Z" stroke="#333333" stroke-width="1.99995"/>
<path d="M27.4941 39.458C26.9935 40.9069 25.6181 41.9482 23.999 41.9482C22.3799 41.9482 21.0046 40.9069 20.5039 39.458H27.4941Z" stroke="#333333" stroke-width="2.41635"/>
</svg>
