<svg width="72" height="72" viewBox="0 0 72 72" fill="none" xmlns="http://www.w3.org/2000/svg">
<path fill-rule="evenodd" clip-rule="evenodd" d="M26.2908 27.5632C26.2908 22.2136 30.5118 17.8601 35.6986 17.8601C40.889 17.8601 45.1118 22.2136 45.1118 27.5632V32.2648H26.2908V27.5632ZM54.0004 35.9282C54.0004 33.9144 52.3542 32.2648 50.3404 32.2648H49.3817V27.5632C49.3817 19.8563 43.2444 13.5857 35.6986 13.5857C28.1582 13.5857 22.0206 19.8563 22.0206 27.5632V32.2648H21.0612C19.0482 32.2648 17.4004 33.9144 17.4004 35.9282V54.8007C17.4004 56.8163 19.0482 58.4641 21.0612 58.4641H50.3404C52.3542 58.4641 54.0004 56.8163 54.0004 54.8007V35.9282Z" fill="#949494"/>
</svg>
