<?xml version="1.0" encoding="UTF-8"?>
<svg xmlns="http://www.w3.org/2000/svg" viewBox="0 0 360 94" width="300" height="78.33333333333333"><text x="180" y="48" text-anchor="middle" font-family="&quot;Arial Black&quot;,&quot;Helvetica Neue&quot;,Impact,sans-serif" font-weight="900" font-size="46" letter-spacing="-1"><tspan fill="#0c0c0d">DOBE</tspan><tspan fill="#ed1c24">DUB</tspan></text><g transform="translate(18,0)"><rect x="0" y="74" width="5" height="6" rx="2" fill="#ed1c24"/><rect x="12" y="70" width="5" height="14" rx="2" fill="#ed1c24"/><rect x="24" y="66" width="5" height="22" rx="2" fill="#ed1c24"/><rect x="36" y="72" width="5" height="10" rx="2" fill="#ed1c24"/><rect x="48" y="75" width="5" height="4" rx="2" fill="#ed1c24"/><rect x="60" y="68" width="5" height="18" rx="2" fill="#ed1c24"/><rect x="72" y="73" width="5" height="8" rx="2" fill="#ed1c24"/><rect x="84" y="67" width="5" height="20" rx="2" fill="#ed1c24"/><rect x="96" y="74" width="5" height="6" rx="2" fill="#0c0c0d"/><rect x="108" y="69" width="5" height="16" rx="2" fill="#0c0c0d"/><rect x="120" y="72" width="5" height="10" rx="2" fill="#0c0c0d"/><rect x="132" y="66" width="5" height="22" rx="2" fill="#0c0c0d"/><rect x="144" y="75" width="5" height="4" rx="2" fill="#0c0c0d"/><rect x="156" y="71" width="5" height="12" rx="2" fill="#0c0c0d"/><rect x="168" y="68" width="5" height="18" rx="2" fill="#0c0c0d"/><rect x="180" y="73" width="5" height="8" rx="2" fill="#0c0c0d"/><rect x="192" y="70" width="5" height="14" rx="2" fill="#0c0c0d"/><rect x="204" y="74" width="5" height="6" rx="2" fill="#0c0c0d"/><rect x="216" y="67" width="5" height="20" rx="2" fill="#0c0c0d"/><rect x="228" y="72" width="5" height="10" rx="2" fill="#0c0c0d"/><rect x="240" y="75" width="5" height="4" rx="2" fill="#0c0c0d"/><rect x="252" y="69" width="5" height="16" rx="2" fill="#0c0c0d"/><rect x="264" y="73" width="5" height="8" rx="2" fill="#0c0c0d"/><rect x="276" y="70" width="5" height="14" rx="2" fill="#0c0c0d"/><rect x="288" y="74" width="5" height="6" rx="2" fill="#0c0c0d"/><rect x="300" y="71" width="5" height="12" rx="2" fill="#0c0c0d"/></g></svg>
