<?xml version="1.0" encoding="UTF-8"?>
<svg xmlns="http://www.w3.org/2000/svg" viewBox="0 0 400 200" width="400" height="200"><rect x="10" y="160" width="14" height="40" rx="6" fill="rgba(255,255,255,.16)"/><rect x="38" y="110" width="14" height="90" rx="6" fill="rgba(255,255,255,.16)"/><rect x="66" y="50" width="14" height="150" rx="6" fill="rgba(255,255,255,.16)"/><rect x="94" y="130" width="14" height="70" rx="6" fill="rgba(255,255,255,.16)"/><rect x="122" y="90" width="14" height="110" rx="6" fill="#ed1c24"/><rect x="150" y="20" width="14" height="180" rx="6" fill="#ed1c24"/><rect x="178" y="140" width="14" height="60" rx="6" fill="#ed1c24"/><rect x="206" y="70" width="14" height="130" rx="6" fill="rgba(255,255,255,.16)"/><rect x="234" y="110" width="14" height="90" rx="6" fill="rgba(255,255,255,.16)"/><rect x="262" y="160" width="14" height="40" rx="6" fill="rgba(255,255,255,.16)"/><rect x="290" y="40" width="14" height="160" rx="6" fill="rgba(255,255,255,.16)"/><rect x="318" y="120" width="14" height="80" rx="6" fill="rgba(255,255,255,.16)"/><rect x="346" y="150" width="14" height="50" rx="6" fill="rgba(255,255,255,.16)"/><rect x="374" y="80" width="14" height="120" rx="6" fill="rgba(255,255,255,.16)"/></svg>
