<?xml version="1.0" encoding="UTF-8"?>
<svg xmlns="http://www.w3.org/2000/svg" viewBox="0 0 360 110" width="300" height="91.66666666666667"><text x="180" y="26" text-anchor="middle" font-family="&quot;SF Mono&quot;,ui-monospace,Menlo,monospace" font-size="11" letter-spacing="5" fill="#74747a">보이스뱅크 두비덥</text><text x="180" y="64" text-anchor="middle" font-family="&quot;Arial Black&quot;,&quot;Helvetica Neue&quot;,Impact,sans-serif" font-weight="900" font-size="46" letter-spacing="-1"><tspan fill="#0c0c0d">DOBE</tspan><tspan fill="#ed1c24">DUB</tspan></text><g transform="translate(18,0)"><rect x="0" y="90" width="5" height="6" rx="2" fill="#ed1c24"/><rect x="12" y="86" width="5" height="14" rx="2" fill="#ed1c24"/><rect x="24" y="82" width="5" height="22" rx="2" fill="#ed1c24"/><rect x="36" y="88" width="5" height="10" rx="2" fill="#ed1c24"/><rect x="48" y="91" width="5" height="4" rx="2" fill="#ed1c24"/><rect x="60" y="84" width="5" height="18" rx="2" fill="#ed1c24"/><rect x="72" y="89" width="5" height="8" rx="2" fill="#ed1c24"/><rect x="84" y="83" width="5" height="20" rx="2" fill="#ed1c24"/><rect x="96" y="90" width="5" height="6" rx="2" fill="#0c0c0d"/><rect x="108" y="85" width="5" height="16" rx="2" fill="#0c0c0d"/><rect x="120" y="88" width="5" height="10" rx="2" fill="#0c0c0d"/><rect x="132" y="82" width="5" height="22" rx="2" fill="#0c0c0d"/><rect x="144" y="91" width="5" height="4" rx="2" fill="#0c0c0d"/><rect x="156" y="87" width="5" height="12" rx="2" fill="#0c0c0d"/><rect x="168" y="84" width="5" height="18" rx="2" fill="#0c0c0d"/><rect x="180" y="89" width="5" height="8" rx="2" fill="#0c0c0d"/><rect x="192" y="86" width="5" height="14" rx="2" fill="#0c0c0d"/><rect x="204" y="90" width="5" height="6" rx="2" fill="#0c0c0d"/><rect x="216" y="83" width="5" height="20" rx="2" fill="#0c0c0d"/><rect x="228" y="88" width="5" height="10" rx="2" fill="#0c0c0d"/><rect x="240" y="91" width="5" height="4" rx="2" fill="#0c0c0d"/><rect x="252" y="85" width="5" height="16" rx="2" fill="#0c0c0d"/><rect x="264" y="89" width="5" height="8" rx="2" fill="#0c0c0d"/><rect x="276" y="86" width="5" height="14" rx="2" fill="#0c0c0d"/><rect x="288" y="90" width="5" height="6" rx="2" fill="#0c0c0d"/><rect x="300" y="87" width="5" height="12" rx="2" fill="#0c0c0d"/></g></svg>
