<svg xmlns="http://www.w3.org/2000/svg" viewBox="0 0 64 64" role="img" aria-labelledby="title desc">
    <title id="title">Tooned Player mark</title>
    <desc id="desc">A compact Tooned Player mark built from a T monogram and a play symbol.</desc>
    <defs>
        <linearGradient id="bg" x1="9" y1="7" x2="55" y2="58" gradientUnits="userSpaceOnUse">
            <stop offset="0" stop-color="#18243a" />
            <stop offset=".58" stop-color="#0c111b" />
            <stop offset="1" stop-color="#080a10" />
        </linearGradient>
        <linearGradient id="mark" x1="14" y1="12" x2="49" y2="51" gradientUnits="userSpaceOnUse">
            <stop offset="0" stop-color="#7cc7ff" />
            <stop offset=".5" stop-color="#38d6c6" />
            <stop offset="1" stop-color="#c8d96a" />
        </linearGradient>
        <linearGradient id="play" x1="34" y1="25" x2="51" y2="41" gradientUnits="userSpaceOnUse">
            <stop offset="0" stop-color="#fff7cf" />
            <stop offset="1" stop-color="#ffbd45" />
        </linearGradient>
    </defs>
    <rect width="64" height="64" rx="16" fill="url(#bg)" />
    <path
        d="M15.5 14h33c1.4 0 2.5 1.1 2.5 2.5v5c0 1.4-1.1 2.5-2.5 2.5H38v24.5c0 1.4-1.1 2.5-2.5 2.5h-7c-1.4 0-2.5-1.1-2.5-2.5V24H15.5c-1.4 0-2.5-1.1-2.5-2.5v-5c0-1.4 1.1-2.5 2.5-2.5Z"
        fill="url(#mark)"
    />
    <path
        d="M37 30.2c0-1.2 1.3-1.9 2.3-1.3l10 6.1c1 .6 1 2 0 2.6l-10 6.1c-1 .6-2.3-.1-2.3-1.3V30.2Z"
        fill="url(#play)"
    />
    <path d="M16 54h10M38 54h10" stroke="#536174" stroke-width="2.4" stroke-linecap="round" opacity=".8" />
</svg>
