<svg xmlns="http://www.w3.org/2000/svg" viewBox="0 0 280 72" role="img" aria-labelledby="title desc">
    <title id="title">Tooned Player logo</title>
    <desc id="desc">Horizontal Tooned Player logo with the T monogram mark and wordmark.</desc>
    <defs>
        <linearGradient id="bg" x1="9" y1="7" x2="55" y2="58" gradientUnits="userSpaceOnUse">
            <stop offset="0" stop-color="#18243a" />
            <stop offset=".58" stop-color="#0c111b" />
            <stop offset="1" stop-color="#080a10" />
        </linearGradient>
        <linearGradient id="mark" x1="14" y1="12" x2="49" y2="51" gradientUnits="userSpaceOnUse">
            <stop offset="0" stop-color="#7cc7ff" />
            <stop offset=".5" stop-color="#38d6c6" />
            <stop offset="1" stop-color="#c8d96a" />
        </linearGradient>
        <linearGradient id="play" x1="34" y1="25" x2="51" y2="41" gradientUnits="userSpaceOnUse">
            <stop offset="0" stop-color="#fff7cf" />
            <stop offset="1" stop-color="#ffbd45" />
        </linearGradient>
    </defs>
    <rect x="4" y="4" width="64" height="64" rx="16" fill="url(#bg)" />
    <path
        d="M19.5 18h33c1.4 0 2.5 1.1 2.5 2.5v5c0 1.4-1.1 2.5-2.5 2.5H42v24.5c0 1.4-1.1 2.5-2.5 2.5h-7c-1.4 0-2.5-1.1-2.5-2.5V28H19.5c-1.4 0-2.5-1.1-2.5-2.5v-5c0-1.4 1.1-2.5 2.5-2.5Z"
        fill="url(#mark)"
    />
    <path
        d="M41 34.2c0-1.2 1.3-1.9 2.3-1.3l10 6.1c1 .6 1 2 0 2.6l-10 6.1c-1 .6-2.3-.1-2.3-1.3V34.2Z"
        fill="url(#play)"
    />
    <path d="M20 58h10M42 58h10" stroke="#536174" stroke-width="2.4" stroke-linecap="round" opacity=".8" />
    <text
        x="84"
        y="39"
        fill="#f4f7fb"
        font-family="-apple-system, BlinkMacSystemFont, 'Segoe UI', Arial, sans-serif"
        font-size="28"
        font-weight="800"
        letter-spacing="0"
    >
        Tooned
    </text>
    <text
        x="85"
        y="58"
        fill="#8a90a2"
        font-family="-apple-system, BlinkMacSystemFont, 'Segoe UI', Arial, sans-serif"
        font-size="15"
        font-weight="700"
        letter-spacing=".4"
    >
        Player
    </text>
</svg>
