<svg width="16" height="16" viewBox="0 0 16 16" fill="none" xmlns="http://www.w3.org/2000/svg">
  <path fill-rule="evenodd" clip-rule="evenodd" d="M8 2C4.68629 2 2 4.35051 2 7.25C2 8.73563 2.70446 10.0737 3.83311 11.0283L3.2643 13.0344C3.20792 13.2333 3.27845 13.4466 3.4441 13.5701C3.60975 13.6937 3.8394 13.7043 4.01575 13.5965L6.31042 12.1944C6.85012 12.3944 7.41975 12.5 8 12.5C11.3137 12.5 14 10.1495 14 7.25C14 4.35051 11.3137 2 8 2ZM3.2 7.25C3.2 5.08045 5.34903 3.2 8 3.2C10.651 3.2 12.8 5.08045 12.8 7.25C12.8 9.41955 10.651 11.3 8 11.3C7.44968 11.3 6.91653 11.2179 6.42462 11.0616C6.25954 11.0091 6.07958 11.0304 5.93115 11.1211L4.85921 11.7761L5.08444 10.9819C5.15129 10.7461 5.06782 10.4933 4.87332 10.3441C3.83806 9.55013 3.2 8.44933 3.2 7.25Z" fill="black"/>
  <path d="M5.5 6.1C5.16863 6.1 4.9 6.36863 4.9 6.7C4.9 7.03137 5.16863 7.3 5.5 7.3H10.5C10.8314 7.3 11.1 7.03137 11.1 6.7C11.1 6.36863 10.8314 6.1 10.5 6.1H5.5Z" fill="black"/>
  <path d="M5.5 8.3C5.16863 8.3 4.9 8.56863 4.9 8.9C4.9 9.23137 5.16863 9.5 5.5 9.5H8.7C9.03137 9.5 9.3 9.23137 9.3 8.9C9.3 8.56863 9.03137 8.3 8.7 8.3H5.5Z" fill="black"/>
</svg>
