<svg width="16" height="16" viewBox="0 0 16 16" fill="none" xmlns="http://www.w3.org/2000/svg">
  <path d="M3.97266 6.44336C4.19127 6.44336 4.36849 6.62058 4.36849 6.83919V7.41992C4.36857 8.40416 4.72442 9.34179 5.34766 10.0273C5.9698 10.7116 6.80541 11.0879 7.66732 11.0879C8.52911 11.0878 9.36425 10.7114 9.98633 10.0273C10.4362 9.5325 10.7457 8.90617 10.8835 8.22591C10.9083 8.22748 10.9331 8.22982 10.9583 8.22982C11.2537 8.22982 11.5223 8.1191 11.7279 7.93815C11.6225 8.92027 11.2213 9.84592 10.5723 10.5599C9.90126 11.2979 9.01339 11.7574 8.06315 11.8581V13.4102H9.25065C9.46916 13.4103 9.64648 13.5874 9.64648 13.806C9.64633 14.0244 9.46907 14.2017 9.25065 14.2018H6.08398C5.86547 14.2018 5.68831 14.0245 5.68815 13.806C5.68815 13.5874 5.86537 13.4102 6.08398 13.4102H7.27148V11.8581C6.32104 11.7575 5.43284 11.298 4.76172 10.5599C3.99941 9.72136 3.5769 8.59106 3.57682 7.41992V6.83919C3.57682 6.62058 3.75404 6.44336 3.97266 6.44336Z" fill="black"/>
  <path d="M7.66732 1.79883C8.63469 1.79883 9.39667 2.53021 9.5944 3.46029C9.53922 3.51197 9.34214 3.64648 8.70833 3.64648C8.06408 3.64648 7.5418 4.16893 7.54167 4.81315C7.54167 5.45748 8.064 5.97982 8.70833 5.97982C9.35264 5.97982 9.54557 6.12321 9.59701 6.17448C9.60927 6.18676 9.62684 6.20741 9.64648 6.24023V7.41992C9.64632 8.56394 8.79493 9.55729 7.66732 9.55729C6.53971 9.55729 5.68832 8.56394 5.68815 7.41992V3.9362C5.68822 2.79209 6.53964 1.79883 7.66732 1.79883Z" fill="black"/>
  <path d="M10.9583 2.06315C10.9929 2.06315 11.0267 2.06689 11.0592 2.07357C11.1243 2.08692 11.1845 2.11314 11.2376 2.14909C11.2909 2.18505 11.3371 2.23062 11.373 2.28385C11.4269 2.36361 11.4583 2.45974 11.4583 2.56315C11.4583 2.84013 11.4807 3.0697 11.5208 3.26042C11.5476 3.38747 11.582 3.49733 11.623 3.59245C11.6845 3.73507 11.7607 3.84456 11.8464 3.92969C11.9037 3.98667 11.9719 4.03929 12.0534 4.08594C12.094 4.1092 12.138 4.13083 12.1855 4.15104C12.3283 4.21176 12.5034 4.25857 12.7194 4.28581C12.8634 4.30397 13.0257 4.31315 13.2083 4.31315C13.2429 4.31315 13.2767 4.31689 13.3092 4.32357C13.4068 4.34359 13.494 4.3918 13.5618 4.45964C13.5845 4.48231 13.605 4.50718 13.623 4.53385C13.6769 4.61361 13.7083 4.70974 13.7083 4.81315C13.7083 5.08929 13.4845 5.31315 13.2083 5.31315C12.4813 5.31315 12.0782 5.47206 11.8477 5.70247C11.8222 5.72792 11.7982 5.75592 11.7747 5.78581C11.7677 5.79472 11.7608 5.80382 11.7539 5.81315C11.7379 5.83498 11.7226 5.85795 11.7077 5.88216C11.6963 5.90055 11.6852 5.91962 11.6745 5.93945C11.661 5.96455 11.6478 5.99071 11.6354 6.01823C11.6249 6.04139 11.6152 6.06554 11.6055 6.09049C11.6015 6.10076 11.5976 6.11116 11.5938 6.12174C11.5097 6.35211 11.4584 6.65668 11.4583 7.06315C11.4583 7.33821 11.2362 7.56075 10.9616 7.5625L10.9583 7.56315C10.6822 7.56315 10.4583 7.33929 10.4583 7.06315C10.4583 6.33696 10.2988 5.93323 10.0677 5.70247C10.0404 5.67518 10.0103 5.6493 9.97786 5.62435C9.96306 5.61287 9.94693 5.60278 9.93099 5.5918C9.91409 5.58028 9.89713 5.56822 9.87891 5.55729C9.8501 5.53981 9.81941 5.52372 9.78711 5.50781C9.78122 5.50494 9.77554 5.50152 9.76953 5.4987C9.73283 5.48132 9.69371 5.46575 9.65234 5.45052C9.65035 5.44979 9.64849 5.44865 9.64648 5.44792C9.41622 5.36422 9.11245 5.31315 8.70833 5.31315C8.43219 5.31315 8.20833 5.08929 8.20833 4.81315C8.20847 4.53712 8.43227 4.31315 8.70833 4.31315C9.27329 4.31315 9.64153 4.2183 9.88607 4.06966C9.89053 4.06699 9.8947 4.0639 9.89909 4.0612C9.9286 4.04268 9.95651 4.024 9.98242 4.00391C10.0136 3.98007 10.0427 3.95578 10.069 3.92969C10.1549 3.8444 10.2312 3.73462 10.293 3.5918C10.3752 3.40136 10.4319 3.15225 10.4512 2.82422C10.456 2.74223 10.4583 2.65531 10.4583 2.56315C10.4584 2.45974 10.4898 2.36361 10.5436 2.28385C10.5796 2.23062 10.6258 2.18505 10.679 2.14909C10.7322 2.11314 10.7924 2.08692 10.8574 2.07357C10.89 2.06689 10.9238 2.06315 10.9583 2.06315Z" fill="black"/>
  <path d="M12.819 0.191406C12.9695 0.191582 13.0916 0.313709 13.0918 0.464193C13.0918 0.867109 13.1787 1.08632 13.3034 1.21029C13.4285 1.33459 13.6482 1.41992 14.0469 1.41992C14.1975 1.41999 14.3197 1.54203 14.3197 1.69271C14.3196 1.84332 14.1975 1.96543 14.0469 1.96549C13.6501 1.96549 13.4298 2.05198 13.304 2.17773C13.1782 2.30353 13.0918 2.5237 13.0918 2.92057C13.0918 3.07119 12.9696 3.19318 12.819 3.19336C12.6683 3.19336 12.5456 3.07129 12.5456 2.92057C12.5456 2.52415 12.4588 2.30369 12.3327 2.17773C12.2064 2.05172 11.9858 1.96549 11.5905 1.96549C11.4399 1.96543 11.3178 1.84332 11.3177 1.69271C11.3177 1.54203 11.4398 1.41999 11.5905 1.41992C11.9877 1.41992 12.2077 1.33485 12.3333 1.21029C12.4584 1.08615 12.5456 0.866651 12.5456 0.464193C12.5457 0.313601 12.6684 0.191406 12.819 0.191406Z" fill="black"/>
</svg>
