<svg width="60" height="60" viewBox="0 0 60 60" fill="none" xmlns="http://www.w3.org/2000/svg">
<rect width="60" height="60" rx="30" fill="#6503F8"/>
<path d="M36.1011 21.3958C37.4777 21.3958 38.6041 22.5222 38.6041 23.8988V36.101C38.6041 37.4777 37.4777 38.6041 36.1011 38.6041H23.8989C22.5222 38.6041 21.3958 37.4777 21.3958 36.101V23.8988C21.3958 22.5222 22.5222 21.3958 23.8989 21.3958H36.1011ZM23.8989 22.8541C23.3277 22.8541 22.8541 23.3276 22.8541 23.8988V36.101C22.8541 36.6722 23.3277 37.1458 23.8989 37.1458H36.1011C36.6723 37.1458 37.1458 36.6722 37.1458 36.101V23.8988C37.1458 23.3276 36.6723 22.8541 36.1011 22.8541H23.8989Z" fill="white"/>
</svg>
