<svg width="60" height="60" viewBox="0 0 60 60" fill="none" xmlns="http://www.w3.org/2000/svg">
<rect width="60" height="60" rx="30" fill="#6503F8"/>
<path d="M34.5094 37.1253V33.2938C34.5094 31.8496 35.6801 30.6769 37.1253 30.6768C37.5648 30.6768 37.9787 30.786 38.3421 30.9775V30C38.3421 25.4014 34.5997 21.6579 30 21.6579C25.4003 21.6579 21.6579 25.4014 21.6579 30V30.9775C22.0213 30.786 22.4352 30.6768 22.8747 30.6768C24.3199 30.6769 25.4906 31.8496 25.4906 33.2938V37.1253C25.4904 38.5707 24.3195 39.7422 22.8747 39.7423C21.4298 39.7423 20.259 38.5708 20.2588 37.1253V30C20.2588 24.6283 24.627 20.2588 30 20.2588C35.373 20.2588 39.7412 24.6283 39.7412 30V37.1253C39.741 38.5708 38.5702 39.7423 37.1253 39.7423C35.6805 39.7422 34.5096 38.5707 34.5094 37.1253Z" fill="white"/>
</svg>
