<svg width="32" height="32" viewBox="0 0 32 32" fill="none" xmlns="http://www.w3.org/2000/svg">
  <path d="M18.333 25C18.333 23.7113 17.2883 22.6667 15.9996 22.6667C14.711 22.6667 13.6663 23.7113 13.6663 25C13.6663 26.2887 14.711 27.3333 15.9996 27.3333C17.2883 27.3333 18.333 26.2887 18.333 25Z" fill="#6503F8"/>
  <path d="M15.9996 13.6667C17.2883 13.6667 18.333 14.7113 18.333 16C18.333 17.2887 17.2883 18.3333 15.9996 18.3333C14.711 18.3333 13.6663 17.2887 13.6663 16C13.6663 14.7113 14.711 13.6667 15.9996 13.6667Z" fill="#6503F8"/>
  <path d="M15.9996 4.66667C17.2883 4.66667 18.333 5.71134 18.333 7C18.333 8.28866 17.2883 9.33333 15.9996 9.33333C14.711 9.33333 13.6663 8.28866 13.6663 7C13.6663 5.71134 14.711 4.66667 15.9996 4.66667Z" fill="#6503F8"/>
</svg>
