<svg width="16" height="16" viewBox="0 0 16 16" fill="none" xmlns="http://www.w3.org/2000/svg">
  <path d="M10.5768 12.0716V9.88216C10.5768 9.05694 11.2458 8.38678 12.0716 8.38672C12.3228 8.38672 12.5592 8.44916 12.7669 8.55859V8C12.7669 5.37221 10.6284 3.23307 8 3.23307C5.37161 3.23307 3.23307 5.37221 3.23307 8V8.55859C3.44077 8.44916 3.67725 8.38672 3.92839 8.38672C4.75423 8.38678 5.42318 9.05694 5.42318 9.88216V12.0716C5.42306 12.8976 4.754 13.567 3.92839 13.5671C3.10272 13.5671 2.43371 12.8976 2.43359 12.0716V8C2.43359 4.93045 4.92972 2.43359 8 2.43359C11.0703 2.43359 13.5664 4.93045 13.5664 8V12.0716C13.5663 12.8976 12.8973 13.5671 12.0716 13.5671C11.246 13.567 10.5769 12.8976 10.5768 12.0716Z" fill="black"/>
</svg>
