<svg width="60" height="60" viewBox="0 0 60 60" fill="none" xmlns="http://www.w3.org/2000/svg">
  <rect x="0.5" y="0.5" width="59" height="59" rx="29.5" fill="white"/>
  <rect x="0.5" y="0.5" width="59" height="59" rx="29.5" stroke="#E0E0E0"/>
  <path d="M25.1924 19.5674V19.5684C26.1697 19.6483 26.9451 20.4756 26.9453 21.4707V38.5273C26.9453 39.5776 26.0853 40.4384 25.0361 40.4385C23.9851 40.4385 23.125 39.5774 23.125 38.5273V21.4707C23.1252 20.4235 23.9833 19.5631 25.0332 19.5615L25.1924 19.5674ZM37.1191 19.5674V19.5684C38.0971 19.6483 38.8739 20.4762 38.874 21.4707V38.5273C38.874 39.5771 38.0126 40.4384 36.9629 40.4385C35.9137 40.4385 35.0537 39.5777 35.0537 38.5273V21.4707C35.0539 20.4232 35.9118 19.5631 36.96 19.5615L37.1191 19.5674Z" stroke="#333333" stroke-width="1.5"/>
</svg>
