<svg width="20" height="20" viewBox="0 0 20 20" fill="none" xmlns="http://www.w3.org/2000/svg">
  <path fill-rule="evenodd" clip-rule="evenodd" d="M16.5625 14.7444C16.9075 14.7444 17.1875 15.0245 17.1875 15.3694C17.1875 15.7153 16.9075 15.9944 16.5625 15.9944H8.4375C8.0925 15.9944 7.8125 15.7153 7.8125 15.3694C7.8125 15.0245 8.0925 14.7444 8.4375 14.7444H16.5625ZM5.10417 14.7444C5.44917 14.7444 5.72917 15.0245 5.72917 15.3694C5.72917 15.7153 5.44917 15.9944 5.10417 15.9944H3.4375C3.0925 15.9944 2.8125 15.7153 2.8125 15.3694C2.8125 15.0245 3.0925 14.7444 3.4375 14.7444H5.10417ZM16.5625 9.37495C16.9075 9.37495 17.1875 9.65503 17.1875 9.99995C17.1875 10.3458 16.9075 10.625 16.5625 10.625H8.4375C8.0925 10.625 7.8125 10.3458 7.8125 9.99995C7.8125 9.65503 8.0925 9.37495 8.4375 9.37495H16.5625ZM5.10417 9.37495C5.44917 9.37495 5.72917 9.65503 5.72917 9.99995C5.72917 10.3458 5.44917 10.625 5.10417 10.625H3.4375C3.0925 10.625 2.8125 10.3458 2.8125 9.99995C2.8125 9.65503 3.0925 9.37495 3.4375 9.37495H5.10417ZM16.5625 4.00553C16.9075 4.00553 17.1875 4.28553 17.1875 4.63053C17.1875 4.97553 16.9075 5.25553 16.5625 5.25553H8.4375C8.0925 5.25553 7.8125 4.97553 7.8125 4.63053C7.8125 4.28553 8.0925 4.00553 8.4375 4.00553H16.5625ZM5.10417 4.00553C5.44917 4.00553 5.72917 4.28553 5.72917 4.63053C5.72917 4.97553 5.44917 5.25553 5.10417 5.25553H3.4375C3.0925 5.25553 2.8125 4.97553 2.8125 4.63053C2.8125 4.28553 3.0925 4.00553 3.4375 4.00553H5.10417Z" fill="#333333"/>
</svg>
