<svg width="60" height="60" viewBox="0 0 60 60" fill="none" xmlns="http://www.w3.org/2000/svg">
<rect x="0.5" y="0.5" width="59" height="59" rx="29.5" fill="white"/>
<rect x="0.5" y="0.5" width="59" height="59" rx="29.5" stroke="#E5E5E5"/>
<path d="M27.0317 23.8999L25.4935 22.3618C28.8939 20.351 33.3496 20.808 36.2715 23.7299C39.7342 27.1925 39.7342 32.8066 36.2715 36.2692C32.8089 39.7319 27.1948 39.7319 23.7321 36.2692C22.0004 34.5374 21.1349 32.2697 21.1352 29.9985C21.1352 29.4186 20.6652 28.9485 20.0853 28.9484C19.5054 28.9483 19.0352 29.4184 19.0352 29.9983C19.0348 32.8037 20.1057 35.6126 22.2472 37.7541C26.53 42.0369 33.4737 42.0369 37.7564 37.7541C42.0392 33.4714 42.0392 26.5277 37.7564 22.2449C34.0091 18.4976 28.2269 18.0298 23.97 20.8383L22.4944 19.3627C22.1941 19.0624 21.7425 18.9725 21.3501 19.1351C20.9578 19.2976 20.7019 19.6805 20.7019 20.1051L20.7019 24.6424C20.7019 24.9209 20.8126 25.188 21.0095 25.3849C21.2064 25.5818 21.4735 25.6924 21.7519 25.6924H26.2892C26.7139 25.6924 27.0968 25.4366 27.2593 25.0442C27.4218 24.6519 27.332 24.2002 27.0317 23.8999Z" fill="#171719"/>
</svg>
