<svg width="20" height="20" viewBox="0 0 20 20" fill="none" xmlns="http://www.w3.org/2000/svg">
  <path d="M2.16695 9.99845C2.16695 5.67222 5.67404 2.16512 10.0003 2.16512C11.5146 2.16512 12.9291 2.5953 14.1275 3.33949L14.9186 2.54833C15.1331 2.33383 15.4557 2.26966 15.736 2.38575C16.0162 2.50183 16.199 2.77531 16.199 3.07866V5.73031C16.199 5.92922 16.1199 6.11998 15.9793 6.26064C15.8386 6.40129 15.6479 6.48031 15.449 6.48031H12.7973C12.494 6.48031 12.2205 6.29757 12.1044 6.01732C11.9883 5.73706 12.0525 5.41447 12.267 5.19998L13.0311 4.43587C12.1309 3.94425 11.0984 3.66512 10.0003 3.66512C6.50247 3.66512 3.66695 6.50065 3.66695 9.99845C3.66695 10.423 3.70862 10.8372 3.78788 11.2372C3.86838 11.6435 3.60427 12.0381 3.19795 12.1186C2.79164 12.1991 2.397 11.935 2.31649 11.5287C2.21831 11.0332 2.16695 10.5215 2.16695 9.99845Z" fill="#333333"/>
  <path d="M16.8027 7.88106C17.209 7.80057 17.6036 8.06471 17.6841 8.47103C17.7822 8.9664 17.8336 9.47801 17.8336 10.0009C17.8336 14.3271 14.3265 17.8342 10.0003 17.8342C8.48641 17.8342 7.07227 17.4043 5.87411 16.6605L5.07983 17.4548C4.86533 17.6693 4.54274 17.7334 4.26249 17.6173C3.98224 17.5013 3.7995 17.2278 3.7995 16.9244L3.7995 14.2728C3.7995 14.0739 3.87852 13.8831 4.01917 13.7425C4.15983 13.6018 4.35059 13.5228 4.5495 13.5228H7.20114C7.50449 13.5228 7.77796 13.7055 7.89405 13.9858C8.01013 14.266 7.94597 14.5886 7.73147 14.8031L6.97053 15.5641C7.87048 16.0553 8.90252 16.3342 10.0003 16.3342C13.4981 16.3342 16.3336 13.4987 16.3336 10.0009C16.3336 9.5764 16.2919 9.1624 16.2127 8.7625C16.1322 8.35618 16.3964 7.96155 16.8027 7.88106Z" fill="#333333"/>
</svg>
