<svg width="24" height="24" viewBox="0 0 22.2502 22.2497" fill="none" xmlns="http://www.w3.org/2000/svg">
  <path fill-rule="evenodd" clip-rule="evenodd" d="M13.5811 14.8857C13.3641 13.8724 14.293 13.0178 15.2539 13.2578L15.4463 13.3213L21.3916 15.7354C22.6029 16.2278 22.5104 17.974 21.2539 18.3359L18.6846 19.0732L17.5107 21.4766C16.9365 22.6518 15.2013 22.44 14.9268 21.1611L14.8271 20.6963L14.8262 20.6973L13.5811 14.8857ZM16.3184 20.499L16.7109 19.6934C16.71 19.694 16.7099 19.6957 16.709 19.6963L17.4824 18.1162L17.6279 17.8164L17.9482 17.7246L20.4971 16.9912L15.0957 14.7979L16.3184 20.499Z" fill="white"/>
  <path d="M10.75 0C16.687 0 21.5 4.81293 21.5 10.75C21.5 12.0452 21.2704 13.2866 20.8506 14.4365L19.458 13.8711C19.8076 12.8958 20 11.8455 20 10.75C20 5.64137 15.8586 1.5 10.75 1.5C5.64136 1.5 1.5 5.64136 1.5 10.75C1.5 12.4359 1.95078 14.0142 2.7373 15.374C2.82693 15.529 2.85796 15.7117 2.8252 15.8877L2.1875 19.3115L5.6123 18.6748C5.78828 18.642 5.97103 18.6731 6.12598 18.7627C7.48574 19.5492 9.06405 20 10.75 20C11.7301 20 12.6741 19.8459 13.5605 19.5635L13.876 21.0361C12.8866 21.3364 11.8375 21.5 10.75 21.5C8.89352 21.5 7.14542 21.028 5.62012 20.1982L1.3877 20.9873C1.14464 21.0326 0.894542 20.9551 0.719727 20.7803C0.544911 20.6055 0.467444 20.3554 0.512695 20.1123L1.30078 15.8789C0.471391 14.3538 0 12.606 0 10.75C0 4.81294 4.81294 0 10.75 0Z" fill="white"/>
  <path d="M10.75 12C11.1642 12 11.5 12.3358 11.5 12.75C11.5 13.1642 11.1642 13.5 10.75 13.5H6.75C6.33579 13.5 6 13.1642 6 12.75C6 12.3358 6.33579 12 6.75 12H10.75Z" fill="white"/>
  <path d="M14.75 8C15.1642 8 15.5 8.33579 15.5 8.75C15.5 9.16421 15.1642 9.5 14.75 9.5H6.75C6.33579 9.5 6 9.16421 6 8.75C6 8.33579 6.33579 8 6.75 8H14.75Z" fill="white"/>
</svg>
