<svg width="16" height="16" viewBox="0 0 16 16" fill="none" xmlns="http://www.w3.org/2000/svg">
  <path fill-rule="evenodd" clip-rule="evenodd" d="M3.2 2C2.53726 2 2 2.53726 2 3.2V12.8C2 13.4627 2.53726 14 3.2 14H12.8C13.4627 14 14 13.4627 14 12.8V3.2C14 2.53726 13.4627 2 12.8 2H3.2ZM3.2 3.2H4.2V4.4H3.2V3.2ZM5.4 3.2H10.6V12.8H5.4V3.2ZM11.8 3.2H12.8V4.4H11.8V3.2ZM3.2 5.6H4.2V7.2H3.2V5.6ZM11.8 5.6H12.8V7.2H11.8V5.6ZM3.2 8.4H4.2V10H3.2V8.4ZM11.8 8.4H12.8V10H11.8V8.4ZM3.2 11.2H4.2V12.8H3.2V11.2ZM11.8 11.2H12.8V12.8H11.8V11.2Z" fill="black"/>
</svg>
