<svg width="60" height="60" viewBox="0 0 60 60" fill="none" xmlns="http://www.w3.org/2000/svg">
<rect width="60" height="60" rx="30" fill="#6503F8"/>
<path d="M35.8823 27.2759C36.2649 27.2759 36.575 27.586 36.575 27.9686V28.9849C36.5749 31.0344 35.8355 33.0124 34.5014 34.4798C33.3272 35.7713 31.7734 36.5755 30.1105 36.7516V39.4678H32.1886C32.571 39.468 32.8813 39.778 32.8813 40.1605C32.881 40.5427 32.5708 40.853 32.1886 40.8532H26.6469C26.2645 40.8532 25.9545 40.5428 25.9542 40.1605C25.9542 39.7779 26.2644 39.4678 26.6469 39.4678H28.7251V36.7516C27.0618 36.5757 25.5074 35.7716 24.333 34.4798C22.9989 33.0124 22.2595 31.0344 22.2594 28.9849V27.9686C22.2594 27.586 22.5695 27.2759 22.9521 27.2759C23.3347 27.2759 23.6448 27.586 23.6448 27.9686V28.9849C23.645 30.7073 24.2677 32.3481 25.3584 33.5479C26.4471 34.7452 27.9094 35.4038 29.4178 35.4038C30.9259 35.4037 32.3874 34.745 33.476 33.5479C34.5667 32.3481 35.1894 30.7073 35.1896 28.9849V27.9686C35.1896 27.5861 35.4999 27.2761 35.8823 27.2759Z" fill="white"/>
<path fill-rule="evenodd" clip-rule="evenodd" d="M29.4178 19.1479C31.3912 19.1479 32.8812 20.8862 32.8813 22.8883V28.9849C32.881 30.9869 31.3911 32.7253 29.4178 32.7253C27.4445 32.7253 25.9545 30.9869 25.9542 28.9849V22.8883C25.9543 20.8862 27.4443 19.1479 29.4178 19.1479Z" fill="white"/>
</svg>
