<svg width="16" height="16" viewBox="0 0 16 16" fill="none" xmlns="http://www.w3.org/2000/svg">
<path d="M6.42421 5.5759C6.18989 5.34158 5.81 5.34158 5.57568 5.5759C5.34137 5.81021 5.34137 6.19011 5.57568 6.42443L7.15141 8.00016L5.57568 9.5759C5.34137 9.81022 5.34137 10.1901 5.57568 10.4244C5.81 10.6587 6.18989 10.6587 6.42421 10.4244L7.99994 8.84869L9.57567 10.4244C9.80998 10.6587 10.1899 10.6587 10.4242 10.4244C10.6585 10.1901 10.6585 9.81022 10.4242 9.5759L8.84846 8.00016L10.4242 6.42443C10.6585 6.19011 10.6585 5.81021 10.4242 5.5759C10.1899 5.34158 9.80998 5.34158 9.57567 5.5759L7.99994 7.15164L6.42421 5.5759Z" fill="#B4B3B3"/>
<path fill-rule="evenodd" clip-rule="evenodd" d="M7.99994 1.3999C4.35487 1.3999 1.39996 4.35482 1.39996 7.9999C1.39996 11.645 4.35487 14.5999 7.99994 14.5999C11.645 14.5999 14.5999 11.645 14.5999 7.9999C14.5999 4.35482 11.645 1.3999 7.99994 1.3999ZM2.59996 7.9999C2.59996 5.01756 5.01761 2.5999 7.99994 2.5999C10.9823 2.5999 13.3999 5.01756 13.3999 7.9999C13.3999 10.9822 10.9823 13.3999 7.99994 13.3999C5.01761 13.3999 2.59996 10.9822 2.59996 7.9999Z" fill="#B4B3B3"/>
</svg>
