<svg width="16" height="16" viewBox="0 0 16 16" fill="none" xmlns="http://www.w3.org/2000/svg">
  <path d="M11.4863 3.08333C12.273 3.08333 12.9167 3.72701 12.9167 4.51367V11.4863C12.9167 12.273 12.273 12.9167 11.4863 12.9167H4.51367C3.72701 12.9167 3.08333 12.273 3.08333 11.4863V4.51367C3.08333 3.72701 3.72701 3.08333 4.51367 3.08333H11.4863ZM4.51367 3.91667C4.18724 3.91667 3.91667 4.18724 3.91667 4.51367V11.4863C3.91667 11.8128 4.18724 12.0833 4.51367 12.0833H11.4863C11.8128 12.0833 12.0833 11.8128 12.0833 11.4863V4.51367C12.0833 4.18724 11.8128 3.91667 11.4863 3.91667H4.51367Z" fill="black"/>
</svg>
