<svg width="32" height="32" viewBox="0 0 32 32" fill="none" xmlns="http://www.w3.org/2000/svg">
<path d="M14.6169 3.41624C15.0673 3.19104 15.5987 3.19098 16.0492 3.41624L29.0244 9.90452C29.4192 10.1021 29.5797 10.5824 29.3825 10.9774C29.1849 11.3726 28.7035 11.5331 28.3083 11.3355L15.333 4.84723L2.35776 11.3355C1.96257 11.5331 1.48113 11.3726 1.28354 10.9774C1.08638 10.5824 1.24679 10.1021 1.64161 9.90452L14.6169 3.41624Z" fill="#333333"/>
<path d="M3.86719 25.2867V14.62C3.86719 14.1782 4.22484 13.8206 4.66667 13.8206C5.10849 13.8206 5.46615 14.1782 5.46615 14.62V25.2867C5.46615 26.3177 6.30239 27.1539 7.33333 27.1539H23.3333C24.3643 27.1539 25.2005 26.3177 25.2005 25.2867V14.62C25.2005 14.1782 25.5582 13.8206 26 13.8206C26.4418 13.8206 26.7995 14.1782 26.7995 14.62V25.2867C26.7995 27.2013 25.248 28.7528 23.3333 28.7528H7.33333C5.41875 28.7528 3.86719 27.2013 3.86719 25.2867Z" fill="#333333"/>
</svg>
