<svg width="125" height="191" viewBox="0 0 125 191" fill="none" xmlns="http://www.w3.org/2000/svg">
<path d="M69.7838 111.749C69.7838 113.638 68.8843 114.583 67.0855 114.583H44.8246C43.0257 114.583 42.1263 113.638 42.1263 111.749V39.3002L33.4917 44.8317C32.2325 45.7311 31.0183 45.4613 29.849 44.0222L19.3257 27.4277C18.2464 25.8987 18.4263 24.6845 19.8653 23.785L42.6659 8.67457C43.3855 8.22486 44.195 8 45.0944 8H66.9506C68.8394 8 69.7838 8.85446 69.7838 10.5634V111.749Z" fill="#6503F8"/>
<path d="M42.126 111.749C42.126 113.52 42.9169 114.461 44.4981 114.571L44.8243 114.583H67.086L67.4121 114.571C68.8878 114.468 69.675 113.642 69.7735 112.093L69.7842 111.749V10.5635C69.7842 8.85456 68.839 8 66.9502 8V0C68.9409 0 71.9274 0.433458 74.4424 2.70898C77.1095 5.12209 77.7842 8.25782 77.7842 10.5635V111.749C77.7842 113.832 77.2946 116.88 74.9024 119.392C72.4408 121.976 69.3208 122.583 67.086 122.583H44.8243C42.5895 122.583 39.4695 121.976 37.0078 119.392C34.6156 116.88 34.126 113.832 34.126 111.749V53.1318C32.8371 53.4076 31.4149 53.4496 29.9014 53.1133C26.8542 52.4361 24.8262 50.5277 23.6397 49.0674L23.3448 48.7031L23.0928 48.3066L12.6309 31.8066C11.5401 30.1906 10.2455 27.5189 10.7373 24.1982C11.2708 20.5977 13.5666 18.3407 15.4473 17.1172L15.4463 17.1162L38.2461 2.00586L38.336 1.94727L38.4258 1.89062C40.4943 0.597838 42.79 0 45.0948 0V8L44.7618 8.01074C43.9943 8.05988 43.2958 8.28124 42.666 8.6748L19.8653 23.7852C18.4264 24.6845 18.2461 25.8989 19.3252 27.4277L29.8487 44.0225C31.0179 45.4616 32.233 45.7315 33.4922 44.832L42.126 39.2998V111.749ZM66.9502 0V8H45.0948V0H66.9502Z" fill="white"/>
<path d="M35.6569 152.502C35.6569 151.782 36.0345 151.423 36.7899 151.423H64.4125L64.5743 147.053H37.2754C36.5561 147.053 36.1964 146.693 36.1964 145.974V139.662C36.1964 138.942 36.5561 138.583 37.2754 138.583H74.1775C74.9328 138.583 75.3104 138.942 75.3104 139.662L74.8788 151.153C74.8069 154.102 74.5731 156.638 74.1775 158.76C73.7819 160.882 73.2783 162.842 72.6669 164.641H76.0658C76.8211 164.641 77.1987 164.982 77.1987 165.666V171.708C77.1987 172.499 76.8211 172.895 76.0658 172.895H70.1852V181.149C70.1852 181.869 69.8255 182.228 69.1062 182.228H61.3373C60.618 182.228 60.2583 181.869 60.2583 181.149V172.895H51.5723V181.149C51.5723 181.869 51.2126 182.228 50.4933 182.228H42.7244C42.0051 182.228 41.6454 181.869 41.6454 181.149V172.895H35.7648C35.0095 172.895 34.6318 172.499 34.6318 171.708V165.666C34.6318 164.982 35.0095 164.641 35.7648 164.641H62.5242C62.8119 163.813 63.0277 162.95 63.1716 162.051C63.3514 161.116 63.5313 160.181 63.7111 159.246H36.7899C36.0345 159.246 35.6569 158.886 35.6569 158.167V152.502Z" fill="#6503F8"/>
<path d="M41.6494 181.28C41.6888 181.87 42.0036 182.185 42.5938 182.225L42.7246 182.229H50.4932C51.1676 182.229 51.5262 181.913 51.5684 181.28L51.5723 181.149V172.896H60.2578V181.149C60.2578 181.869 60.6178 182.228 61.3369 182.229H69.1064L69.2363 182.225C69.8267 182.185 70.1413 181.87 70.1807 181.28L70.1855 181.149V172.896H76.0654L76.2031 172.891C76.8668 172.844 77.1982 172.45 77.1982 171.708V165.666C77.1982 164.983 76.8207 164.641 76.0654 164.641H72.667C73.2784 162.842 73.7821 160.882 74.1777 158.76C74.5238 156.903 74.7454 154.73 74.8438 152.24L74.8789 151.153L75.3105 139.662C75.3105 138.988 74.9784 138.629 74.3145 138.587L74.1777 138.583V130.583C75.6937 130.583 78.3157 130.937 80.5439 133.06C82.8454 135.251 83.3105 137.967 83.3105 139.662V139.812L83.3047 139.962L82.873 151.453C82.8042 154.136 82.6074 156.646 82.2559 158.941C82.2647 158.949 82.2744 158.957 82.2832 158.965C84.6667 161.122 85.1982 163.873 85.1982 165.666V171.708C85.1982 173.246 84.8376 175.885 82.7021 178.122C81.2771 179.615 79.6318 180.335 78.1855 180.658V181.149L78.1797 181.461C78.1272 183.074 77.6432 185.545 75.5723 187.616C73.3632 189.825 70.6993 190.228 69.1064 190.229H61.3369C59.9885 190.228 57.8729 189.939 55.915 188.51C53.9571 189.939 51.8415 190.229 50.4932 190.229H42.7246C41.1318 190.229 38.4671 189.825 36.2578 187.616C34.0485 185.407 33.6455 182.742 33.6455 181.149V180.658C32.1991 180.335 30.5532 179.615 29.1279 178.122C26.9927 175.885 26.6318 173.246 26.6318 171.708V165.666L26.6387 165.318C26.6869 164.036 27.0141 162.365 28.0195 160.776C27.7431 159.801 27.6572 158.891 27.6572 158.167V152.502L27.6631 152.173C27.6987 151.152 27.9079 149.839 28.5352 148.508C28.2729 147.546 28.1963 146.66 28.1963 145.974V139.662C28.1963 138.069 28.6003 135.405 30.8096 133.195C33.0188 130.986 35.6826 130.583 37.2754 130.583V138.583L37.1445 138.587C36.5124 138.629 36.1963 138.988 36.1963 139.662V145.974C36.1963 146.693 36.5561 147.053 37.2754 147.053H64.5742L64.4121 151.423H36.79C36.0347 151.423 35.6572 151.783 35.6572 152.502V158.167C35.6573 158.886 36.0348 159.246 36.79 159.246H63.7109C63.5312 160.181 63.3517 161.116 63.1719 162.051C63.028 162.95 62.8121 163.813 62.5244 164.641H35.7646C35.0094 164.641 34.6318 164.983 34.6318 165.666V171.708C34.6318 172.45 34.9638 172.844 35.6279 172.891L35.7646 172.896H41.6455V181.149L41.6494 181.28ZM74.1777 130.583V138.583H37.2754V130.583H74.1777Z" fill="white"/>
<path d="M16.3237 121.617C18.3546 120.018 20.7657 119.572 23.0265 119.594C23.4552 119.598 23.8195 119.739 24.0676 119.864C24.3314 119.996 24.5698 120.165 24.7715 120.34C25.132 120.651 25.5781 121.155 25.7655 121.778C25.9564 122.413 25.8506 123.077 25.7144 123.529C25.5794 123.977 25.2987 124.603 24.7657 125.029C24.2696 125.426 23.7266 125.685 23.3033 125.863C23.0889 125.953 22.8822 126.031 22.7221 126.092C22.5471 126.158 22.4418 126.2 22.367 126.233L22.2392 126.291L22.1029 126.325C21.0716 126.577 20.0287 126.9 19.0399 127.076L18.6197 127.142C17.1256 127.342 15.5108 126.472 15.2033 124.747L15.174 124.528C15.1258 124.015 15.2201 123.502 15.3545 123.093C15.5021 122.644 15.7917 122.036 16.3228 121.618L16.3237 121.617Z" fill="#6503F8" stroke="#F3F3F3" stroke-width="3"/>
<path d="M6.13171 123.5C6.71589 123.413 8.18419 123.055 9.48859 123.087C10.2607 123.106 10.893 123.556 11.2278 123.849C11.5912 124.167 12.0357 124.678 12.2201 125.307C12.4033 125.932 12.3096 126.599 12.1774 127.064C12.0552 127.494 11.7714 128.211 11.1413 128.649L11.1403 128.65C9.02536 130.119 6.59339 130.489 4.29987 130.369C3.81964 130.344 3.43648 130.143 3.20532 129.994C2.95131 129.83 2.72988 129.629 2.54833 129.432C2.22793 129.083 1.82454 128.515 1.71308 127.859L1.68449 127.606C1.65071 127.021 1.83648 126.481 2.0085 126.117C2.2178 125.674 2.54985 125.19 2.99394 124.843C3.47567 124.468 4.00513 124.248 4.44395 124.085C4.95494 123.895 5.28155 123.799 5.78801 123.594L5.95401 123.527L6.13171 123.5Z" fill="#6503F8" stroke="#F3F3F3" stroke-width="3"/>
<path d="M9.54671 113.442C10.2265 113.253 10.8901 113.414 11.31 113.566C11.7699 113.733 12.2297 113.995 12.5924 114.31C13.0459 114.705 13.3134 115.191 13.4814 115.526C13.7067 115.975 13.74 116.097 13.903 116.39L14.0502 116.656L14.0835 116.959C14.1964 118.013 14.4834 119.545 14.4333 120.945L14.4336 120.946C14.4047 121.747 13.9199 122.352 13.6481 122.649C13.3202 123.007 12.9285 123.312 12.5859 123.525L12.585 123.525C11.6887 124.082 10.6694 123.85 10.0961 123.603C9.50344 123.347 8.68128 122.776 8.42848 121.795C7.9789 120.054 7.55792 118.233 7.3314 116.374L7.31741 116.179C7.31047 115.734 7.46322 115.369 7.56712 115.162C7.70418 114.889 7.8829 114.645 8.05945 114.445C8.36838 114.095 8.89876 113.622 9.54671 113.442Z" fill="#6503F8" stroke="#F3F3F3" stroke-width="3"/>
<path d="M13.5933 126.17L13.7848 126.127C14.2325 126.043 14.6925 126.077 15.0638 126.156C15.4145 126.231 16.0194 126.416 16.4654 126.899L16.5522 126.999C16.9229 127.458 17.2005 127.948 17.4135 128.36C17.6827 128.882 17.7452 129.049 17.9273 129.386L18.0299 129.578L18.0746 129.791C18.2991 130.863 18.6518 132.097 18.7567 133.233C18.8204 133.922 18.6868 134.677 18.2703 135.319C17.8323 135.995 17.1162 136.482 16.2117 136.584C15.6849 136.643 15.1169 136.56 14.6417 136.409C14.2169 136.274 13.5412 135.982 13.117 135.366L12.857 134.966C11.6163 132.954 11.2612 130.694 11.4365 128.481L11.4362 128.48C11.4716 128.034 11.6598 127.686 11.8018 127.473C11.955 127.244 12.1375 127.05 12.3105 126.895C12.5925 126.643 12.978 126.381 13.4069 126.229L13.5933 126.17Z" fill="#6503F8" stroke="#F3F3F3" stroke-width="3"/>
<path d="M114.734 157.027C117.318 157.101 119.454 158.304 121.175 159.77C121.502 160.048 121.691 160.39 121.802 160.644C121.919 160.915 121.994 161.198 122.037 161.461C122.114 161.931 122.133 162.604 121.878 163.202C121.617 163.812 121.111 164.254 120.716 164.513C120.325 164.771 119.709 165.071 119.027 165.056C118.392 165.043 117.809 164.894 117.37 164.759C117.148 164.691 116.939 164.618 116.777 164.562C116.6 164.501 116.493 164.466 116.414 164.444L116.278 164.406L116.153 164.344C115.199 163.877 114.192 163.456 113.32 162.958L112.955 162.739C111.68 161.935 110.998 160.232 111.868 158.711L111.986 158.524C112.277 158.1 112.679 157.766 113.044 157.538C113.445 157.288 114.057 157.007 114.733 157.026L114.734 157.027Z" fill="#FFCC00" stroke="#F3F3F3" stroke-width="3"/>
<path d="M105.703 151.939C106.208 152.246 107.564 152.912 108.545 153.773C109.125 154.283 109.322 155.034 109.391 155.473C109.467 155.949 109.48 156.627 109.219 157.228C108.959 157.825 108.459 158.277 108.06 158.549C107.69 158.801 107.013 159.169 106.248 159.102L106.247 159.102C103.682 158.874 101.578 157.599 99.8948 156.037C99.5424 155.709 99.3767 155.31 99.295 155.047C99.2051 154.759 99.1639 154.463 99.1511 154.195C99.1284 153.722 99.183 153.027 99.5178 152.452L99.6582 152.24C100.007 151.769 100.496 151.474 100.861 151.304C101.306 151.099 101.871 150.94 102.434 150.958C103.045 150.979 103.592 151.15 104.033 151.306C104.547 151.487 104.859 151.623 105.38 151.79L105.55 151.845L105.703 151.939Z" fill="#FFCC00" stroke="#F3F3F3" stroke-width="3"/>
<path d="M114.772 146.408C115.415 146.699 115.821 147.248 116.046 147.633C116.292 148.056 116.477 148.552 116.553 149.027C116.648 149.62 116.542 150.165 116.457 150.53C116.342 151.019 116.289 151.134 116.226 151.463L116.169 151.761L116 152.016C115.411 152.897 114.65 154.257 113.714 155.299L113.713 155.3C113.178 155.896 112.418 156.05 112.019 156.104C111.538 156.168 111.042 156.151 110.642 156.095L110.641 156.095C109.596 155.948 108.963 155.117 108.681 154.559C108.39 153.983 108.125 153.018 108.56 152.103C109.331 150.478 110.174 148.811 111.192 147.239L111.307 147.08C111.586 146.734 111.938 146.552 112.15 146.459C112.43 146.338 112.724 146.265 112.987 146.225C113.449 146.154 114.159 146.131 114.772 146.408Z" fill="#FFCC00" stroke="#F3F3F3" stroke-width="3"/>
<path d="M109.72 158.771L109.895 158.86C110.293 159.083 110.624 159.404 110.858 159.703C111.079 159.985 111.425 160.514 111.458 161.171L111.46 161.304C111.451 161.893 111.35 162.448 111.249 162.901C111.121 163.473 111.062 163.642 110.986 164.017L110.941 164.231L110.839 164.423C110.325 165.389 109.804 166.563 109.157 167.501C108.764 168.072 108.177 168.565 107.446 168.792C106.677 169.029 105.815 168.944 105.056 168.442C104.613 168.15 104.23 167.723 103.962 167.302C103.723 166.926 103.391 166.269 103.461 165.524L103.517 165.051C103.855 162.711 105.031 160.748 106.584 159.162L106.584 159.161C106.897 158.842 107.265 158.695 107.51 158.623C107.775 158.545 108.039 158.513 108.271 158.505C108.649 158.493 109.113 158.539 109.54 158.696L109.72 158.771Z" fill="#FFCC00" stroke="#F3F3F3" stroke-width="3"/>
</svg>
