<svg width="215" height="191" viewBox="0 0 215 191" fill="none" xmlns="http://www.w3.org/2000/svg">
<rect x="27.8438" y="133.686" width="173" height="57" fill="white"/>
<path d="M175.921 151.636C176.621 151.636 176.971 151.969 176.971 152.636V167.886C176.971 170.386 177.221 172.152 177.721 173.186C178.254 174.186 179.121 174.686 180.321 174.686C181.554 174.686 182.421 174.186 182.921 173.186C183.454 172.152 183.721 170.386 183.721 167.886V158.686C183.721 157.252 183.604 156.002 183.371 154.936C183.171 153.836 182.804 152.936 182.271 152.236C181.771 151.502 181.071 150.969 180.171 150.636C179.271 150.269 178.154 150.086 176.821 150.086H167.671C166.971 150.086 166.621 149.752 166.621 149.086V143.636C166.621 142.969 166.971 142.636 167.671 142.636H176.571C182.304 142.636 186.471 143.936 189.071 146.536C191.704 149.102 193.021 153.252 193.021 158.986V167.536C193.021 170.369 192.721 172.736 192.121 174.636C191.521 176.502 190.671 178.002 189.571 179.136C188.471 180.269 187.138 181.069 185.571 181.536C184.004 182.002 182.254 182.236 180.321 182.236C178.421 182.236 176.688 182.002 175.121 181.536C173.554 181.069 172.221 180.269 171.121 179.136C170.021 178.002 169.171 176.502 168.571 174.636C167.971 172.736 167.671 170.369 167.671 167.536V152.636C167.671 151.969 168.004 151.636 168.671 151.636H175.921ZM197.921 182.486C197.254 182.486 196.921 182.152 196.921 181.486V142.736C196.921 142.036 197.254 141.686 197.921 141.686H205.171C205.838 141.686 206.171 142.036 206.171 142.736V181.486C206.171 182.152 205.838 182.486 205.171 182.486H197.921Z" fill="#333333"/>
<path d="M115.281 181.736C114.615 181.736 114.281 181.402 114.281 180.736V143.436C114.281 142.769 114.615 142.436 115.281 142.436H122.481C123.148 142.436 123.481 142.769 123.481 143.436V174.336H130.131V162.036H126.031C125.331 162.036 124.981 161.686 124.981 160.986V155.636C124.981 154.969 125.331 154.636 126.031 154.636H130.131V143.436C130.131 142.769 130.481 142.436 131.181 142.436H138.281C138.981 142.436 139.331 142.769 139.331 143.436V180.736C139.331 181.402 138.981 181.736 138.281 181.736H115.281ZM143.881 182.486C143.181 182.486 142.831 182.152 142.831 181.486V142.736C142.831 142.036 143.181 141.686 143.881 141.686H151.031C151.731 141.686 152.081 142.036 152.081 142.736V156.536H154.681C155.348 156.536 155.681 156.886 155.681 157.586V164.236C155.681 164.902 155.348 165.236 154.681 165.236H152.081V181.486C152.081 182.152 151.731 182.486 151.031 182.486H143.881Z" fill="#333333"/>
<path d="M99.6406 174.736C100.307 174.736 100.641 175.069 100.641 175.736V180.986C100.641 181.652 100.307 181.986 99.6406 181.986H63.5906C62.924 181.986 62.5906 181.652 62.5906 180.986V171.386C62.5906 170.719 62.924 170.386 63.5906 170.386H71.1406C71.8073 170.386 72.1406 170.719 72.1406 171.386V174.736H99.6406ZM62.1906 167.336C61.424 167.336 61.074 167.002 61.1406 166.336L61.7406 151.936C61.8073 151.302 62.1573 150.986 62.7906 150.986H76.5906C77.2906 150.986 77.6406 151.319 77.6406 151.986V155.586C77.6406 156.252 77.2906 156.586 76.5906 156.586H69.7906L69.6406 161.136H79.3406C79.974 161.136 80.2906 161.469 80.2906 162.136V166.286C80.2906 166.986 79.974 167.336 79.3406 167.336H62.1906ZM90.1406 168.586C90.1406 169.286 89.8073 169.636 89.1406 169.636H83.6406C82.974 169.636 82.6406 169.286 82.6406 168.586V158.236H80.1906C79.5573 158.236 79.2406 157.902 79.2406 157.236V152.386C79.2406 151.686 79.5573 151.336 80.1906 151.336H82.6406V142.886C82.6406 142.186 82.974 141.836 83.6406 141.836H89.1406C89.8073 141.836 90.1406 142.186 90.1406 142.886V168.586ZM92.5906 142.736C92.5906 142.036 92.924 141.686 93.5906 141.686H99.1406C99.8073 141.686 100.141 142.036 100.141 142.736V169.136C100.141 169.802 99.8073 170.136 99.1406 170.136H93.5906C92.924 170.136 92.5906 169.802 92.5906 169.136V142.736ZM60.6406 143.436C60.6406 142.769 60.9906 142.436 61.6906 142.436H78.5406C79.2406 142.436 79.5906 142.769 79.5906 143.436V147.536C79.5906 148.202 79.2406 148.536 78.5406 148.536H61.6906C60.9906 148.536 60.6406 148.202 60.6406 147.536V143.436Z" fill="#333333"/>
<path d="M20.35 167.086C20.1833 167.286 20 167.469 19.8 167.636C19.6333 167.802 19.4 167.886 19.1 167.886H9.65C9.25 167.886 8.95 167.769 8.75 167.536C8.55 167.302 8.58333 167.019 8.85 166.686L25.35 143.236C25.5167 143.002 25.7 142.819 25.9 142.686C26.1 142.519 26.3333 142.436 26.6 142.436H36.55C36.9167 142.436 37.15 142.586 37.25 142.886C37.3833 143.152 37.3333 143.436 37.1 143.736L20.35 167.086ZM28.65 159.486C28.3167 159.019 28.35 158.536 28.75 158.036L33.05 152.036C33.4833 151.469 33.9167 151.486 34.35 152.086L46.8 166.686C47.0667 166.986 47.1 167.269 46.9 167.536C46.7 167.769 46.4 167.886 46 167.886H36.3C36 167.886 35.75 167.802 35.55 167.636C35.3833 167.469 35.2167 167.286 35.05 167.086L28.65 159.486ZM9.05 181.486C8.35 181.486 8 181.119 8 180.386V174.686C8 174.019 8.35 173.686 9.05 173.686H46.4C47.1 173.686 47.45 174.019 47.45 174.686V180.386C47.45 181.119 47.1 181.486 46.4 181.486H9.05Z" fill="#333333"/>
<path d="M197.922 141.686C197.255 141.686 196.922 142.035 196.922 142.735V181.485C196.922 182.152 197.255 182.485 197.922 182.485H205.172C205.839 182.485 206.172 182.152 206.172 181.485V142.735C206.172 142.035 205.839 141.686 205.172 141.686V133.686C206.841 133.686 209.537 134.143 211.716 136.431C213.825 138.645 214.172 141.247 214.172 142.735V181.485C214.172 183.052 213.775 185.696 211.579 187.893C209.383 190.089 206.738 190.686 205.172 190.686H197.922C196.355 190.685 193.711 190.088 191.516 187.893C191.463 187.84 191.412 187.786 191.361 187.733C190.257 188.346 189.084 188.836 187.856 189.202C185.428 189.926 182.892 190.235 180.322 190.235C177.931 190.235 175.57 189.96 173.293 189.333L172.839 189.202C170.184 188.411 167.788 187.043 165.778 185.103L165.382 184.707C163.377 182.641 162.022 180.175 161.129 177.6L160.956 177.083L160.95 177.063L160.943 177.044C160.018 174.112 159.672 170.871 159.672 167.535V153.393C158.833 151.805 158.622 150.211 158.622 149.085V143.636C158.622 141.967 159.08 139.271 161.367 137.092C163.582 134.983 166.183 134.636 167.672 134.636H176.572C181.429 134.636 186.284 135.418 190.4 137.659C190.675 137.243 190.998 136.831 191.379 136.431C193.557 134.143 196.253 133.686 197.922 133.686V141.686ZM205.172 133.686V141.686H197.922V133.686H205.172ZM166.622 149.085C166.622 149.752 166.972 150.085 167.672 150.085H176.822C178.156 150.085 179.272 150.269 180.172 150.636C181.072 150.969 181.772 151.502 182.272 152.235C182.806 152.935 183.172 153.836 183.372 154.936C183.605 156.002 183.723 157.252 183.723 158.686V167.886L183.71 168.788C183.652 170.815 183.389 172.281 182.922 173.186C182.422 174.185 181.555 174.686 180.322 174.686C179.122 174.686 178.256 174.185 177.723 173.186C177.285 172.281 177.039 170.815 176.984 168.788L176.973 167.886V152.636C176.973 151.969 176.622 151.636 175.922 151.636H168.672C168.005 151.636 167.672 151.969 167.672 152.636V167.535C167.672 170.368 167.972 172.736 168.572 174.636C169.172 176.502 170.022 178.002 171.122 179.136C172.222 180.269 173.556 181.068 175.122 181.535C176.689 182.002 178.422 182.235 180.322 182.235C182.256 182.235 184.006 182.002 185.572 181.535C187.139 181.069 188.472 180.269 189.572 179.136C190.672 178.002 191.522 176.502 192.122 174.636C192.722 172.736 193.022 170.368 193.022 167.535V158.985C193.022 153.252 191.706 149.102 189.072 146.535C186.472 143.935 182.306 142.636 176.572 142.636H167.672C166.972 142.636 166.622 142.969 166.622 143.636V149.085Z" fill="white"/>
<path d="M151.031 133.686V141.686H143.882C143.182 141.686 142.832 142.035 142.832 142.735V181.485C142.832 182.152 143.182 182.485 143.882 182.485H151.031C151.687 182.485 152.036 182.192 152.077 181.606L152.082 181.485V165.235H154.682L154.803 165.231C155.35 165.195 155.641 164.903 155.678 164.356L155.682 164.235V157.585C155.682 156.885 155.348 156.535 154.682 156.535H152.082V142.735C152.082 142.035 151.731 141.686 151.031 141.686V133.686C152.614 133.686 155.271 134.087 157.476 136.291C159.542 138.358 160.024 140.822 160.076 142.427L160.082 142.735V150.271C160.473 150.559 160.856 150.893 161.225 151.28C163.334 153.495 163.682 156.097 163.682 157.585V164.235L163.677 164.541C163.625 166.13 163.148 168.584 161.089 170.643C160.762 170.97 160.424 171.255 160.082 171.507V181.485L160.076 181.81C160.018 183.489 159.481 185.986 157.336 188.028C155.121 190.137 152.52 190.485 151.031 190.485H143.882C142.891 190.485 141.408 190.329 139.873 189.604C139.27 189.703 138.726 189.735 138.281 189.735H115.281C113.715 189.735 111.071 189.338 108.875 187.143C106.679 184.946 106.281 182.302 106.281 180.735V143.436C106.281 141.869 106.679 139.224 108.875 137.028C111.071 134.833 113.715 134.436 115.281 134.436V142.436C114.615 142.436 114.281 142.769 114.281 143.436V180.735C114.281 181.402 114.615 181.735 115.281 181.735H138.281C138.981 181.735 139.332 181.402 139.332 180.735V143.436C139.332 142.769 138.981 142.436 138.281 142.436H131.182C130.482 142.436 130.132 142.769 130.132 143.436V154.636H126.031C125.332 154.636 124.981 154.969 124.981 155.636V160.985C124.981 161.685 125.332 162.035 126.031 162.035H130.132V174.335H123.481V143.436C123.481 142.769 123.148 142.436 122.481 142.436H115.281V134.436H122.481C123.575 134.436 125.193 134.631 126.818 135.495C128.477 134.617 130.115 134.436 131.182 134.436H138.281C138.728 134.436 139.275 134.468 139.882 134.569C141.389 133.856 142.859 133.686 143.882 133.686H151.031Z" fill="white"/>
<path d="M62.5947 181.106C62.6338 181.692 62.9659 181.985 63.5908 181.985H99.6406C100.266 181.985 100.598 181.692 100.637 181.106L100.641 180.985V175.735C100.641 175.069 100.307 174.735 99.6406 174.735H72.1406V171.386C72.1406 170.719 71.8073 170.386 71.1406 170.386H63.5908C62.9243 170.386 62.5908 170.719 62.5908 171.386V180.985L62.5947 181.106ZM83.6406 141.835C82.9742 141.835 82.6406 142.186 82.6406 142.886V151.335H80.1914C79.5581 151.335 79.2412 151.686 79.2412 152.386V157.235C79.2412 157.902 79.5581 158.235 80.1914 158.235H82.6406V168.585C82.6406 169.285 82.9742 169.636 83.6406 169.636H89.1406C89.8073 169.636 90.1406 169.285 90.1406 168.585V142.886C90.1406 142.186 89.8073 141.835 89.1406 141.835H83.6406ZM62.791 150.985C62.1577 150.985 61.8079 151.302 61.7412 151.936L61.1406 166.335C61.074 167.002 61.4247 167.335 62.1914 167.335H79.3408C79.9742 167.335 80.291 166.985 80.291 166.285V162.136C80.291 161.469 79.9742 161.136 79.3408 161.136H69.6406L69.791 156.585H76.5908C77.2908 156.585 77.6406 156.252 77.6406 155.585V151.985C77.6406 151.319 77.2908 150.985 76.5908 150.985H62.791ZM61.5635 142.439C60.9485 142.479 60.6406 142.811 60.6406 143.436V147.535C60.6406 148.202 60.9914 148.535 61.6914 148.535H78.541C79.241 148.535 79.5908 148.202 79.5908 147.535V143.436C79.5908 142.769 79.241 142.436 78.541 142.436H61.6914L61.5635 142.439ZM108.141 169.136L108.136 169.441C108.114 170.1 108.018 170.907 107.768 171.773C108.473 173.27 108.641 174.726 108.641 175.735V180.985L108.636 181.291C108.584 182.88 108.107 185.334 106.048 187.393C103.852 189.589 101.207 189.985 99.6406 189.985H63.5908C62.0244 189.985 59.3805 189.588 57.1846 187.393C54.9885 185.196 54.5908 182.552 54.5908 180.985V171.4C53.2753 169.428 53.0625 167.312 53.1533 165.867L53.7344 151.928C52.8574 150.313 52.6406 148.682 52.6406 147.535V143.436C52.6406 141.767 53.0991 139.071 55.3867 136.893C57.6013 134.783 60.2031 134.436 61.6914 134.436H78.541C78.9618 134.436 79.4713 134.465 80.0361 134.553C81.3817 133.989 82.6807 133.835 83.6406 133.835H89.1406C89.687 133.835 90.3433 133.887 91.0557 134.033C92.0061 133.769 92.8889 133.686 93.5908 133.686H99.1406V141.686H93.5908C92.9243 141.686 92.5908 142.035 92.5908 142.735V169.136C92.591 169.802 92.9244 170.136 93.5908 170.136H99.1406C99.7655 170.136 100.098 169.842 100.137 169.257L100.141 169.136V142.735C100.141 142.035 99.8073 141.686 99.1406 141.686V133.686C100.809 133.686 103.506 134.143 105.685 136.431C107.794 138.645 108.141 141.247 108.141 142.735V169.136Z" fill="white"/>
<path d="M8.00488 180.494C8.04316 181.095 8.34887 181.416 8.92285 181.457L9.05078 181.46H46.4004C47.0566 181.46 47.4053 181.138 47.4463 180.494L47.4502 180.361V174.661C47.4502 173.994 47.1004 173.661 46.4004 173.661H9.05078C8.35078 173.661 8 173.994 8 174.661V180.361L8.00488 180.494ZM34.3506 152.06C33.9174 151.46 33.484 151.444 33.0508 152.01L28.75 158.01C28.3501 158.51 28.3171 158.994 28.6504 159.46L35.0508 167.06C35.2174 167.26 35.3841 167.444 35.5508 167.611C35.7507 167.777 36.001 167.861 36.3008 167.861H46C46.4 167.861 46.7004 167.744 46.9004 167.51C47.1002 167.244 47.0672 166.96 46.8008 166.661L34.3506 152.06ZM36.5508 133.686V142.411H26.6006V133.686H36.5508ZM55.4463 180.656C55.3997 182.195 54.9638 184.626 52.9746 186.709C50.7866 189.002 48.1755 190.686 46.4951 190.686H9.14551C7.46504 190.686 4.66361 189.002 2.47559 186.709C0.354243 184.487 6.10983e-05 181.87 0 180.361L0 174.661L0.00585938 174.335C0.0460403 173.187 0.310846 171.656 1.16016 170.149C0.709371 168.947 0.514192 167.603 0.680664 166.188C0.910131 164.238 1.7508 162.805 2.38086 161.954L18.8076 138.607L18.8408 138.56C19.3955 137.784 20.1317 136.972 21.0928 136.265C22.7079 135.034 24.6406 133.686 26.6006 133.686V142.411L26.502 142.415C26.2759 142.433 26.0754 142.515 25.9004 142.661C25.7005 142.794 25.5172 142.977 25.3506 143.21L8.85059 166.661C8.58405 166.994 8.5503 167.277 8.75 167.51C8.95 167.744 9.25039 167.861 9.65039 167.861H19.1006C19.4005 167.861 19.6342 167.777 19.8008 167.611C20.0008 167.444 20.1839 167.26 20.3506 167.06L37.1006 143.71C37.3338 143.411 37.3832 143.127 37.25 142.861C37.1625 142.598 36.9733 142.45 36.6816 142.417L36.5508 142.411V133.686C37.7845 133.686 39.5653 134.662 41.3262 135.793C42.9752 136.854 44.0309 138.318 44.6279 139.767C46.13 143.253 44.9613 146.479 43.5977 148.372L43.6006 148.374L42.7412 149.571L52.8877 161.469L52.8848 161.47C53.6692 162.385 54.7111 163.957 54.9707 166.164C55.1549 167.73 54.8926 169.151 54.4023 170.358C55.2396 171.944 55.4502 173.535 55.4502 174.661V180.361L55.4463 180.656Z" fill="white"/>
<path d="M72.6982 70.1553H89.4336C89.403 69.793 89.3877 69.445 89.3877 69.1162V56.8789H72.833C70.6078 56.8789 67.6282 56.2698 65.2197 53.8613C62.8786 51.5201 62.2475 48.64 62.1445 46.5801L62.1348 46.3809V44.9668C62.1348 37.7077 63.1243 31.0594 65.3662 25.2305C67.5462 19.5626 70.7122 14.6517 74.9824 10.7373C79.1174 6.94693 83.9687 4.22272 89.418 2.54004L89.4736 2.52246C89.4873 2.51825 89.501 2.51298 89.5146 2.50879C94.8629 0.809404 100.565 3.22526e-05 106.562 0C112.314 0 117.779 0.770918 122.891 2.40234C128.084 3.9433 132.749 6.38863 136.759 9.7998C136.767 9.80652 136.776 9.81359 136.784 9.82031C136.81 9.84234 136.837 9.86363 136.862 9.88574C140.952 13.301 144.11 17.5506 146.359 22.498C148.723 27.6984 149.774 33.503 149.774 39.7051V39.8535L149.77 40.001C149.566 45.4933 148.647 50.6243 146.858 55.2695C146.196 57.0809 145.418 58.8128 144.521 60.4531C146.618 62.8361 148.326 65.5469 149.624 68.5635C152.039 73.8846 153.147 79.745 153.147 85.9805C153.147 92.284 151.969 98.1865 149.335 103.455L149.334 103.454C146.95 108.402 143.629 112.639 139.393 116.074L139.383 116.083L139.373 116.091C135.24 119.42 130.431 121.793 125.093 123.311L125.094 123.312C119.861 124.913 114.343 125.686 108.586 125.686C102.643 125.686 96.9468 124.98 91.5303 123.521C85.8864 122.091 80.786 119.646 76.3545 116.123L76.3066 116.085L76.2588 116.045C71.7312 112.33 68.2286 107.637 65.7002 102.141L65.6455 102.02C63.0915 96.215 62 89.4624 62 82.0684V80.6543L62.0098 80.4541C62.1128 78.3943 62.7441 75.5149 65.085 73.1738C67.4935 70.7653 70.473 70.1553 72.6982 70.1553Z" fill="white"/>
<path d="M100.221 71.8147C98.3321 71.8147 97.3877 70.9152 97.3877 69.1164V55.8947C97.3877 54.0959 98.3321 53.1964 100.221 53.1964H102.649C107.147 53.0165 110.519 52.0272 112.768 50.2283C115.017 48.3395 116.141 45.3714 116.141 41.3239C116.141 39.8848 116.006 38.5357 115.736 37.2765C115.466 36.0173 114.927 34.893 114.117 33.9036C113.398 32.9142 112.363 32.1497 111.014 31.6101C109.665 30.9805 107.956 30.6657 105.887 30.6657C102.11 30.6657 99.5463 31.9249 98.1972 34.4433C96.848 36.9617 96.1734 40.1547 96.1734 44.0222V46.0459C96.1734 47.9347 95.274 48.8792 93.4752 48.8792H72.8332C71.1243 48.8792 70.2249 47.9797 70.1349 46.1809V44.9666C70.1349 38.4008 71.0343 32.7793 72.8332 28.1023C74.6321 23.4252 77.1505 19.6027 80.3884 16.6345C83.6264 13.6664 87.449 11.5078 91.8562 10.1586C96.3533 8.71954 101.255 8 106.562 8C111.599 8 116.231 8.67457 120.458 10.0237C124.775 11.2829 128.508 13.2617 131.656 15.96C134.804 18.5683 137.277 21.8512 139.076 25.8087C140.875 29.7662 141.775 34.3983 141.775 39.705C141.595 44.5619 140.785 48.8342 139.346 52.5219C137.997 56.2095 136.153 59.2676 133.815 61.696C137.682 64.2145 140.515 67.5873 142.314 71.8147C144.203 75.952 145.147 80.674 145.147 85.9807C145.147 91.2873 144.158 95.9194 142.179 99.8769C140.291 103.834 137.682 107.162 134.354 109.861C131.116 112.469 127.249 114.403 122.752 115.662C118.344 117.011 113.622 117.686 108.586 117.686C103.279 117.686 98.2871 117.056 93.6101 115.797C88.933 114.628 84.8406 112.649 81.3328 109.861C77.8251 106.982 75.0368 103.295 72.9681 98.7976C70.9894 94.3004 70 88.724 70 82.0682V80.8539C70.0899 79.0551 70.9894 78.1556 72.6983 78.1556H93.3402C95.1391 78.1556 96.0385 79.1 96.0385 80.9888V83.0126C96.0385 86.8801 97.0729 89.8482 99.1416 91.9169C101.21 93.9856 104.133 95.02 107.911 95.02C112.138 95.02 115.106 93.9856 116.815 91.9169C118.614 89.7583 119.514 87.2399 119.514 84.3617C119.514 76.4467 114.432 72.2644 104.268 71.8147H100.221Z" fill="#333333"/>
</svg>
