<svg width="215" height="189" viewBox="0 0 215 189" fill="none" xmlns="http://www.w3.org/2000/svg">
<rect x="27.8438" y="131.932" width="173" height="57" fill="white"/>
<path d="M175.921 149.882C176.621 149.882 176.971 150.215 176.971 150.882V166.132C176.971 168.632 177.221 170.398 177.721 171.432C178.254 172.432 179.121 172.932 180.321 172.932C181.554 172.932 182.421 172.432 182.921 171.432C183.454 170.398 183.721 168.632 183.721 166.132V156.932C183.721 155.498 183.604 154.248 183.371 153.182C183.171 152.082 182.804 151.182 182.271 150.482C181.771 149.748 181.071 149.215 180.171 148.882C179.271 148.515 178.154 148.332 176.821 148.332H167.671C166.971 148.332 166.621 147.998 166.621 147.332V141.882C166.621 141.215 166.971 140.882 167.671 140.882H176.571C182.304 140.882 186.471 142.182 189.071 144.782C191.704 147.348 193.021 151.498 193.021 157.232V165.782C193.021 168.615 192.721 170.982 192.121 172.882C191.521 174.748 190.671 176.248 189.571 177.382C188.471 178.515 187.138 179.315 185.571 179.782C184.004 180.248 182.254 180.482 180.321 180.482C178.421 180.482 176.688 180.248 175.121 179.782C173.554 179.315 172.221 178.515 171.121 177.382C170.021 176.248 169.171 174.748 168.571 172.882C167.971 170.982 167.671 168.615 167.671 165.782V150.882C167.671 150.215 168.004 149.882 168.671 149.882H175.921ZM197.921 180.732C197.254 180.732 196.921 180.398 196.921 179.732V140.982C196.921 140.282 197.254 139.932 197.921 139.932H205.171C205.838 139.932 206.171 140.282 206.171 140.982V179.732C206.171 180.398 205.838 180.732 205.171 180.732H197.921Z" fill="#333333"/>
<path d="M115.281 179.982C114.615 179.982 114.281 179.648 114.281 178.982V141.682C114.281 141.015 114.615 140.682 115.281 140.682H122.481C123.148 140.682 123.481 141.015 123.481 141.682V172.582H130.131V160.282H126.031C125.331 160.282 124.981 159.932 124.981 159.232V153.882C124.981 153.215 125.331 152.882 126.031 152.882H130.131V141.682C130.131 141.015 130.481 140.682 131.181 140.682H138.281C138.981 140.682 139.331 141.015 139.331 141.682V178.982C139.331 179.648 138.981 179.982 138.281 179.982H115.281ZM143.881 180.732C143.181 180.732 142.831 180.398 142.831 179.732V140.982C142.831 140.282 143.181 139.932 143.881 139.932H151.031C151.731 139.932 152.081 140.282 152.081 140.982V154.782H154.681C155.348 154.782 155.681 155.132 155.681 155.832V162.482C155.681 163.148 155.348 163.482 154.681 163.482H152.081V179.732C152.081 180.398 151.731 180.732 151.031 180.732H143.881Z" fill="#333333"/>
<path d="M99.6406 172.982C100.307 172.982 100.641 173.315 100.641 173.982V179.232C100.641 179.898 100.307 180.232 99.6406 180.232H63.5906C62.924 180.232 62.5906 179.898 62.5906 179.232V169.632C62.5906 168.965 62.924 168.632 63.5906 168.632H71.1406C71.8073 168.632 72.1406 168.965 72.1406 169.632V172.982H99.6406ZM62.1906 165.582C61.424 165.582 61.074 165.248 61.1406 164.582L61.7406 150.182C61.8073 149.548 62.1573 149.232 62.7906 149.232H76.5906C77.2906 149.232 77.6406 149.565 77.6406 150.232V153.832C77.6406 154.498 77.2906 154.832 76.5906 154.832H69.7906L69.6406 159.382H79.3406C79.974 159.382 80.2906 159.715 80.2906 160.382V164.532C80.2906 165.232 79.974 165.582 79.3406 165.582H62.1906ZM90.1406 166.832C90.1406 167.532 89.8073 167.882 89.1406 167.882H83.6406C82.974 167.882 82.6406 167.532 82.6406 166.832V156.482H80.1906C79.5573 156.482 79.2406 156.148 79.2406 155.482V150.632C79.2406 149.932 79.5573 149.582 80.1906 149.582H82.6406V141.132C82.6406 140.432 82.974 140.082 83.6406 140.082H89.1406C89.8073 140.082 90.1406 140.432 90.1406 141.132V166.832ZM92.5906 140.982C92.5906 140.282 92.924 139.932 93.5906 139.932H99.1406C99.8073 139.932 100.141 140.282 100.141 140.982V167.382C100.141 168.048 99.8073 168.382 99.1406 168.382H93.5906C92.924 168.382 92.5906 168.048 92.5906 167.382V140.982ZM60.6406 141.682C60.6406 141.015 60.9906 140.682 61.6906 140.682H78.5406C79.2406 140.682 79.5906 141.015 79.5906 141.682V145.782C79.5906 146.448 79.2406 146.782 78.5406 146.782H61.6906C60.9906 146.782 60.6406 146.448 60.6406 145.782V141.682Z" fill="#333333"/>
<path d="M20.35 165.332C20.1833 165.532 20 165.715 19.8 165.882C19.6333 166.048 19.4 166.132 19.1 166.132H9.65C9.25 166.132 8.95 166.015 8.75 165.782C8.55 165.548 8.58333 165.265 8.85 164.932L25.35 141.482C25.5167 141.248 25.7 141.065 25.9 140.932C26.1 140.765 26.3333 140.682 26.6 140.682H36.55C36.9167 140.682 37.15 140.832 37.25 141.132C37.3833 141.398 37.3333 141.682 37.1 141.982L20.35 165.332ZM28.65 157.732C28.3167 157.265 28.35 156.782 28.75 156.282L33.05 150.282C33.4833 149.715 33.9167 149.732 34.35 150.332L46.8 164.932C47.0667 165.232 47.1 165.515 46.9 165.782C46.7 166.015 46.4 166.132 46 166.132H36.3C36 166.132 35.75 166.048 35.55 165.882C35.3833 165.715 35.2167 165.532 35.05 165.332L28.65 157.732ZM9.05 179.732C8.35 179.732 8 179.365 8 178.632V172.932C8 172.265 8.35 171.932 9.05 171.932H46.4C47.1 171.932 47.45 172.265 47.45 172.932V178.632C47.45 179.365 47.1 179.732 46.4 179.732H9.05Z" fill="#333333"/>
<path d="M197.922 139.932C197.255 139.932 196.922 140.282 196.922 140.981V179.731C196.922 180.398 197.255 180.731 197.922 180.731H205.172C205.839 180.731 206.172 180.398 206.172 179.731V140.981C206.172 140.281 205.839 139.932 205.172 139.932V131.932C206.841 131.932 209.537 132.389 211.716 134.677C213.825 136.891 214.172 139.493 214.172 140.981V179.731C214.172 181.298 213.775 183.943 211.579 186.139C209.383 188.335 206.738 188.932 205.172 188.932H197.922C196.355 188.932 193.711 188.334 191.516 186.139C191.463 186.086 191.412 186.033 191.361 185.979C190.257 186.592 189.084 187.082 187.856 187.448C185.428 188.172 182.892 188.481 180.322 188.481C177.931 188.481 175.57 188.207 173.293 187.579L172.839 187.448C170.184 186.658 167.788 185.289 165.778 183.349L165.382 182.953C163.377 180.887 162.022 178.421 161.129 175.846L160.956 175.329L160.95 175.31L160.943 175.29C160.018 172.359 159.672 169.117 159.672 165.781V151.639C158.833 150.051 158.622 148.457 158.622 147.331V141.882C158.622 140.213 159.08 137.517 161.367 135.338C163.582 133.229 166.183 132.882 167.672 132.882H176.572C181.429 132.882 186.284 133.664 190.4 135.905C190.675 135.489 190.998 135.077 191.379 134.677C193.557 132.389 196.253 131.932 197.922 131.932V139.932ZM205.172 131.932V139.932H197.922V131.932H205.172ZM166.622 147.331C166.622 147.998 166.972 148.331 167.672 148.331H176.822C178.156 148.331 179.272 148.515 180.172 148.882C181.072 149.215 181.772 149.748 182.272 150.481C182.806 151.181 183.172 152.082 183.372 153.182C183.605 154.248 183.723 155.498 183.723 156.932V166.132L183.71 167.034C183.652 169.061 183.389 170.527 182.922 171.432C182.422 172.431 181.555 172.932 180.322 172.932C179.122 172.932 178.256 172.431 177.723 171.432C177.285 170.527 177.039 169.061 176.984 167.034L176.973 166.132V150.882C176.973 150.215 176.622 149.882 175.922 149.882H168.672C168.005 149.882 167.672 150.215 167.672 150.882V165.781C167.672 168.615 167.972 170.982 168.572 172.882C169.172 174.748 170.022 176.249 171.122 177.382C172.222 178.515 173.556 179.315 175.122 179.781C176.689 180.248 178.422 180.481 180.322 180.481C182.256 180.481 184.006 180.248 185.572 179.781C187.139 179.315 188.472 178.515 189.572 177.382C190.672 176.249 191.522 174.748 192.122 172.882C192.722 170.982 193.022 168.615 193.022 165.781V157.231C193.022 151.498 191.706 147.348 189.072 144.781C186.472 142.181 182.306 140.882 176.572 140.882H167.672C166.972 140.882 166.622 141.215 166.622 141.882V147.331Z" fill="white"/>
<path d="M151.031 131.932V139.932H143.882C143.182 139.932 142.832 140.281 142.832 140.981V179.731C142.832 180.398 143.182 180.731 143.882 180.731H151.031C151.687 180.731 152.036 180.438 152.077 179.853L152.082 179.731V163.481H154.682L154.803 163.478C155.35 163.441 155.641 163.149 155.678 162.603L155.682 162.481V155.831C155.682 155.131 155.348 154.781 154.682 154.781H152.082V140.981C152.082 140.281 151.731 139.932 151.031 139.932V131.932C152.614 131.932 155.271 132.333 157.476 134.537C159.542 136.604 160.024 139.068 160.076 140.673L160.082 140.981V148.517C160.473 148.805 160.856 149.14 161.225 149.526C163.334 151.741 163.682 154.343 163.682 155.831V162.481L163.677 162.787C163.625 164.376 163.148 166.83 161.089 168.889C160.762 169.216 160.424 169.501 160.082 169.753V179.731L160.076 180.056C160.018 181.735 159.481 184.232 157.336 186.274C155.121 188.383 152.52 188.731 151.031 188.731H143.882C142.891 188.731 141.408 188.575 139.873 187.85C139.27 187.949 138.726 187.981 138.281 187.981H115.281C113.715 187.981 111.071 187.584 108.875 185.389C106.679 183.193 106.281 180.548 106.281 178.981V141.682C106.281 140.115 106.679 137.471 108.875 135.274C111.071 133.079 113.715 132.682 115.281 132.682V140.682C114.615 140.682 114.281 141.015 114.281 141.682V178.981C114.281 179.648 114.615 179.981 115.281 179.981H138.281C138.981 179.981 139.332 179.648 139.332 178.981V141.682C139.332 141.015 138.981 140.682 138.281 140.682H131.182C130.482 140.682 130.132 141.015 130.132 141.682V152.882H126.031C125.332 152.882 124.981 153.215 124.981 153.882V159.231C124.981 159.931 125.332 160.281 126.031 160.281H130.132V172.581H123.481V141.682C123.481 141.015 123.148 140.682 122.481 140.682H115.281V132.682H122.481C123.575 132.682 125.193 132.877 126.818 133.741C128.477 132.863 130.115 132.682 131.182 132.682H138.281C138.728 132.682 139.275 132.715 139.882 132.815C141.389 132.102 142.859 131.932 143.882 131.932H151.031Z" fill="white"/>
<path d="M62.5947 179.353C62.6338 179.938 62.9659 180.231 63.5908 180.231H99.6406C100.266 180.231 100.598 179.938 100.637 179.353L100.641 179.231V173.981C100.641 173.315 100.307 172.981 99.6406 172.981H72.1406V169.632C72.1406 168.965 71.8073 168.632 71.1406 168.632H63.5908C62.9243 168.632 62.5908 168.965 62.5908 169.632V179.231L62.5947 179.353ZM83.6406 140.081C82.9742 140.081 82.6406 140.432 82.6406 141.132V149.581H80.1914C79.5581 149.581 79.2412 149.932 79.2412 150.632V155.481C79.2412 156.148 79.5581 156.481 80.1914 156.481H82.6406V166.831C82.6406 167.531 82.9742 167.882 83.6406 167.882H89.1406C89.8073 167.882 90.1406 167.531 90.1406 166.831V141.132C90.1406 140.432 89.8073 140.081 89.1406 140.081H83.6406ZM62.791 149.231C62.1577 149.231 61.8079 149.548 61.7412 150.182L61.1406 164.581C61.074 165.248 61.4247 165.581 62.1914 165.581H79.3408C79.9742 165.581 80.291 165.231 80.291 164.531V160.382C80.291 159.715 79.9742 159.382 79.3408 159.382H69.6406L69.791 154.831H76.5908C77.2908 154.831 77.6406 154.498 77.6406 153.831V150.231C77.6406 149.565 77.2908 149.231 76.5908 149.231H62.791ZM61.5635 140.686C60.9485 140.725 60.6406 141.057 60.6406 141.682V145.781C60.6406 146.448 60.9914 146.781 61.6914 146.781H78.541C79.241 146.781 79.5908 146.448 79.5908 145.781V141.682C79.5908 141.015 79.241 140.682 78.541 140.682H61.6914L61.5635 140.686ZM108.141 167.382L108.136 167.688C108.114 168.346 108.018 169.153 107.768 170.02C108.473 171.516 108.641 172.972 108.641 173.981V179.231L108.636 179.537C108.584 181.126 108.107 183.58 106.048 185.639C103.852 187.835 101.207 188.231 99.6406 188.231H63.5908C62.0244 188.231 59.3805 187.834 57.1846 185.639C54.9885 183.443 54.5908 180.798 54.5908 179.231V169.646C53.2753 167.674 53.0625 165.558 53.1533 164.113L53.7344 150.174C52.8574 148.559 52.6406 146.928 52.6406 145.781V141.682C52.6406 140.013 53.0991 137.317 55.3867 135.139C57.6013 133.03 60.2031 132.682 61.6914 132.682H78.541C78.9618 132.682 79.4713 132.711 80.0361 132.799C81.3817 132.235 82.6807 132.081 83.6406 132.081H89.1406C89.687 132.081 90.3433 132.133 91.0557 132.279C92.0061 132.015 92.8889 131.932 93.5908 131.932H99.1406V139.932H93.5908C92.9243 139.932 92.5908 140.282 92.5908 140.981V167.382C92.591 168.048 92.9244 168.382 93.5908 168.382H99.1406C99.7655 168.382 100.098 168.089 100.137 167.503L100.141 167.382V140.981C100.141 140.281 99.8073 139.932 99.1406 139.932V131.932C100.809 131.932 103.506 132.389 105.685 134.677C107.794 136.891 108.141 139.493 108.141 140.981V167.382Z" fill="white"/>
<path d="M8.00488 178.74C8.04316 179.341 8.34887 179.662 8.92285 179.703L9.05078 179.707H46.4004C47.0566 179.707 47.4053 179.384 47.4463 178.74L47.4502 178.607V172.907C47.4502 172.24 47.1004 171.907 46.4004 171.907H9.05078C8.35078 171.907 8 172.24 8 172.907V178.607L8.00488 178.74ZM34.3506 150.306C33.9174 149.706 33.484 149.69 33.0508 150.256L28.75 156.256C28.3501 156.756 28.3171 157.24 28.6504 157.707L35.0508 165.306C35.2174 165.506 35.3841 165.69 35.5508 165.857C35.7507 166.023 36.001 166.107 36.3008 166.107H46C46.4 166.107 46.7004 165.99 46.9004 165.756C47.1002 165.49 47.0672 165.207 46.8008 164.907L34.3506 150.306ZM36.5508 131.932V140.657H26.6006V131.932H36.5508ZM55.4463 178.902C55.3997 180.441 54.9638 182.872 52.9746 184.956C50.7866 187.248 48.1755 188.932 46.4951 188.932H9.14551C7.46504 188.932 4.66361 187.248 2.47559 184.956C0.354243 182.733 6.10983e-05 180.116 0 178.607L0 172.907L0.00585938 172.582C0.0460403 171.433 0.310846 169.902 1.16016 168.395C0.709371 167.194 0.514192 165.849 0.680664 164.434C0.910131 162.484 1.7508 161.052 2.38086 160.2L18.8076 136.853L18.8408 136.806C19.3955 136.03 20.1317 135.219 21.0928 134.511C22.7079 133.281 24.6406 131.932 26.6006 131.932V140.657L26.502 140.661C26.2759 140.679 26.0754 140.761 25.9004 140.907C25.7005 141.04 25.5172 141.223 25.3506 141.457L8.85059 164.907C8.58405 165.24 8.5503 165.523 8.75 165.756C8.95 165.99 9.25039 166.107 9.65039 166.107H19.1006C19.4005 166.107 19.6342 166.024 19.8008 165.857C20.0008 165.69 20.1839 165.506 20.3506 165.306L37.1006 141.957C37.3338 141.657 37.3832 141.374 37.25 141.107C37.1625 140.844 36.9733 140.696 36.6816 140.664L36.5508 140.657V131.932C37.7845 131.932 39.5653 132.908 41.3262 134.04C42.9752 135.1 44.0309 136.564 44.6279 138.013C46.13 141.499 44.9613 144.725 43.5977 146.618L43.6006 146.62L42.7412 147.817L52.8877 159.715L52.8848 159.716C53.6692 160.631 54.7111 162.203 54.9707 164.41C55.1549 165.976 54.8926 167.397 54.4023 168.604C55.2396 170.19 55.4502 171.781 55.4502 172.907V178.607L55.4463 178.902Z" fill="white"/>
<path d="M108.022 86.6553C107.303 87.3748 106.673 87.9594 106.133 88.4092C105.594 88.7689 104.829 88.9488 103.84 88.9488H76.0474C75.148 88.9488 74.5184 88.679 74.1586 88.1393C73.8888 87.5997 73.9787 86.9701 74.4285 86.2505C75.9575 83.6422 78.0712 81.0338 80.7695 78.4255C83.5577 75.7272 86.4808 73.0739 89.5389 70.4655C92.6869 67.7672 95.8799 65.1589 99.1179 62.6404C102.356 60.0321 105.279 57.5137 107.887 55.0852C110.496 52.5668 112.609 50.1833 114.228 47.9347C115.937 45.5962 116.792 43.3926 116.792 41.3239C116.792 39.8848 116.657 38.5357 116.387 37.2765C116.117 36.0173 115.577 34.893 114.768 33.9036C114.048 32.9142 113.059 32.1497 111.8 31.6101C110.541 30.9805 108.922 30.6657 106.943 30.6657C103.345 30.6657 100.827 31.9249 99.3877 34.4433C98.0385 36.9617 97.364 40.1547 97.364 44.0222V46.0459C97.364 47.9347 96.4645 48.8792 94.6657 48.8792H74.6983C72.9894 48.8792 72.0899 47.9797 72 46.1809V44.9666C72 38.4008 72.8545 32.7793 74.5634 28.1023C76.3622 23.4252 78.8357 19.6027 81.9837 16.6345C85.1317 13.6664 88.8643 11.5078 93.1816 10.1586C97.5888 8.71954 102.401 8 107.617 8C112.564 8 117.106 8.67457 121.244 10.0237C125.471 11.2829 129.114 13.2617 132.172 15.96C135.32 18.5683 137.748 21.8512 139.457 25.8087C141.256 29.7662 142.156 34.3983 142.156 39.705C142.156 45.0116 140.986 49.7786 138.648 54.0059C136.399 58.2332 133.566 62.1907 130.148 65.8784C126.73 69.4761 122.998 72.9389 118.95 76.2668C114.993 79.5947 111.35 83.0575 108.022 86.6553ZM140.132 92.9963C141.841 92.9963 142.695 93.9407 142.695 95.8295V113.233C142.695 115.032 141.841 115.932 140.132 115.932H75.3729C73.6639 115.932 72.8095 115.032 72.8095 113.233V95.8295C72.8095 93.9407 73.6639 92.9963 75.3729 92.9963H140.132Z" fill="#FDD92E"/>
<path d="M142.155 39.7051C142.155 34.3984 141.256 29.7661 139.457 25.8086C137.748 21.8512 135.32 18.5683 132.172 15.96C129.114 13.2617 125.471 11.2826 121.244 10.0234C117.107 8.67429 112.564 8 107.617 8C102.401 8.00003 97.5887 8.71918 93.1816 10.1582L92.3789 10.4209C88.4 11.7806 84.9347 13.8522 81.9834 16.6348L81.4014 17.2012C78.5292 20.0839 76.2499 23.7178 74.5635 28.1025L74.2529 28.9902C72.7509 33.4856 72 38.8113 72 44.9668V46.1807C72.0899 47.9795 72.9894 48.8789 74.6982 48.8789H94.666L94.9922 48.8682C96.4681 48.7649 97.2552 47.9384 97.3535 46.3887L97.3643 46.0459V44.0225C97.3643 40.1549 98.0386 36.9618 99.3877 34.4434C100.827 31.925 103.346 30.666 106.943 30.666L107.31 30.6689C109.123 30.7058 110.619 31.0201 111.8 31.6104C113.059 32.1499 114.048 32.9142 114.768 33.9033C115.577 34.8927 116.117 36.0172 116.387 37.2764C116.657 38.5356 116.792 39.8851 116.792 41.3242L116.781 41.7139C116.681 43.6689 115.83 45.7425 114.229 47.9346L113.598 48.7842C112.073 50.7811 110.17 52.8815 107.888 55.085C105.279 57.5134 102.356 60.0323 99.1182 62.6406C95.8802 65.159 92.6871 67.7675 89.5391 70.4658C86.481 73.0742 83.5577 75.7275 80.7695 78.4258L80.2705 78.9141C77.8092 81.3595 75.8622 83.8055 74.4287 86.251C73.9791 86.9704 73.8884 87.6 74.1582 88.1396C74.518 88.6793 75.1484 88.9492 76.0479 88.9492H103.84C104.829 88.9492 105.594 88.769 106.134 88.4092C106.673 87.9595 107.303 87.3747 108.022 86.6553C111.35 83.0576 114.993 79.5945 118.95 76.2666C122.745 73.1467 126.263 69.9088 129.504 66.5518L130.148 65.8779C133.566 62.1904 136.399 58.233 138.647 54.0059C140.84 50.0427 142.005 45.6052 142.142 40.6934L142.155 39.7051ZM105.364 46.0459C105.364 46.0936 105.362 46.1418 105.361 46.1904C106.294 45.1446 107.082 44.169 107.736 43.2607L107.753 43.2373L107.77 43.2148C108.673 41.978 108.781 41.3686 108.791 41.2969C108.789 40.3695 108.702 39.5967 108.564 38.9551L108.528 38.9121L108.433 38.8711L108.278 38.7939C108.252 38.7862 108.199 38.7714 108.114 38.7549C107.896 38.7124 107.518 38.666 106.943 38.666C106.612 38.666 106.372 38.6875 106.206 38.7119C105.752 39.7812 105.364 41.4599 105.364 44.0225V46.0459ZM150.155 39.7051C150.155 46.1843 148.724 52.2653 145.71 57.7617L145.711 57.7627C143.122 62.6295 139.879 67.1477 136.016 71.3164L135.982 71.3525L135.948 71.3887C132.305 75.2233 128.346 78.8959 124.076 82.4092C123.062 83.2628 122.072 84.1263 121.104 84.9961H140.132V92.9961H75.373C73.6642 92.9961 72.8097 93.9405 72.8096 95.8291V113.233C72.8096 114.92 73.5605 115.816 75.0625 115.921L75.373 115.932H140.132C141.734 115.932 142.585 115.141 142.686 113.561L142.695 113.233V95.8291C142.695 93.9405 141.841 92.9961 140.132 92.9961V84.9961C142.437 84.9961 145.573 85.6701 147.986 88.3369C150.262 90.8518 150.695 93.8384 150.695 95.8291V113.233C150.695 115.267 150.22 118.278 147.854 120.768C145.416 123.334 142.327 123.932 140.132 123.932H75.373C73.1778 123.932 70.0885 123.334 67.6504 120.768C65.2852 118.278 64.8096 115.266 64.8096 113.233V95.8291C64.8096 94.2522 65.0823 92.0512 66.3262 89.9541C65.456 86.7878 66.491 83.9469 67.5293 82.2051H67.5273C69.4998 78.8403 72.1085 75.671 75.209 72.6738C78.1209 69.8559 81.1678 67.0912 84.3477 64.3789C87.3567 61.8001 90.4074 59.3004 93.499 56.8789H74.6982C72.473 56.8789 69.4935 56.2698 67.085 53.8613C64.7438 51.5201 64.1128 48.64 64.0098 46.5801L64 46.3809V44.9668C64 37.7458 64.9343 31.1435 67.0488 25.3564L67.0723 25.293L67.0967 25.2305C69.2579 19.6113 72.3471 14.7245 76.4951 10.8135C80.5419 6.99791 85.3167 4.25142 90.6982 2.55469C90.7304 2.54419 90.7627 2.53289 90.7949 2.52246V2.52344C96.0694 0.813474 101.697 2.65268e-05 107.617 0C113.219 0 118.544 0.756691 123.527 2.35645L124.505 2.66113C129.278 4.21209 133.571 6.57679 137.276 9.7998L137.664 10.127C141.608 13.4967 144.629 17.6639 146.739 22.498H146.74C149.104 27.6984 150.155 33.503 150.155 39.7051Z" fill="white"/>
</svg>
