<svg width="74" height="84" viewBox="0 0 74 84" fill="none" xmlns="http://www.w3.org/2000/svg">
<path d="M4 29.3526C4 25.9044 6.89965 23.1657 10.3423 23.3624L68.3423 26.6767C71.5179 26.8582 74 29.4862 74 32.6669V49.3331C74 52.5138 71.5179 55.1418 68.3423 55.3233L10.3423 58.6376C6.89965 58.8343 4 56.0956 4 52.6474V29.3526Z" fill="#333333"/>
<path d="M67.5 68L52.0001 55L64.307 55L67.5 68Z" fill="#333333"/>
<path d="M57.3535 38.2676C57.3535 40.4141 58.7754 42.6152 60.498 43.4629L59.8418 44.3242C58.502 43.6201 57.3809 42.1846 56.8477 40.4961C56.3008 42.2939 55.1523 43.8252 53.7852 44.5566L53.1016 43.6953C54.8789 42.8203 56.2871 40.4824 56.3008 38.2676V36.0527H57.3535V38.2676ZM62.6855 35V39.9355H64.7227V40.8652H62.6855V47.1543H61.6191V35H62.6855Z" fill="white"/>
<path d="M51.5703 35V47.1543H50.5449V40.7832H48.7539V46.5254H47.7695V35.2734H48.7539V39.8945H50.5449V35H51.5703ZM46.1836 36.4902V37.3789H42.6973V43.2305C44.3721 43.2236 45.5342 43.1621 46.8809 42.8887L46.9766 43.791C45.5137 44.0918 44.2695 44.1465 42.4102 44.1465H41.6309V36.4902H46.1836Z" fill="white"/>
<path d="M31.1035 35.2734C33.7422 35.2734 35.3965 36.1211 35.3965 37.584C35.3965 39.0195 33.7422 39.8535 31.1035 39.8535C28.4648 39.8535 26.7969 39.0195 26.7969 37.584C26.7969 36.1211 28.4648 35.2734 31.1035 35.2734ZM31.1035 36.1348C29.1348 36.1348 27.8906 36.6816 27.9043 37.584C27.8906 38.4727 29.1348 38.9922 31.1035 39.0059C33.0449 38.9922 34.3027 38.4727 34.3027 37.584C34.3027 36.6816 33.0449 36.1348 31.1035 36.1348ZM35.2871 42.998V46.9902H26.9199V42.998H35.2871ZM27.9863 43.8594V46.1152H34.2344V43.8594H27.9863ZM36.6406 40.9062V41.7949H25.5664V40.9062H36.6406Z" fill="white"/>
<path d="M22.873 35V39.8125H24.9102V40.7148H22.873V47.1816H21.8066V35H22.873ZM19.6738 36.1895V37.0781H15.0664V43.2305C17.2676 43.2305 18.8262 43.1279 20.6309 42.793L20.7676 43.7227C18.8672 44.0645 17.2676 44.1328 14.957 44.1328H14V36.1895H19.6738Z" fill="white"/>
<rect y="34" width="2" height="15" rx="1" fill="#333333"/>
</svg>
